<?xml version="1.0" encoding="utf-8" standalone="no"?>
<!DOCTYPE svg PUBLIC "-//W3C//DTD SVG 1.1//EN"
  "http://www.w3.org/Graphics/SVG/1.1/DTD/svg11.dtd">
<svg xmlns:xlink="http://www.w3.org/1999/xlink" width="468.203125pt" height="382.433413pt" viewBox="0 0 468.203125 382.433413" xmlns="http://www.w3.org/2000/svg" version="1.1">
 <metadata>
  <rdf:RDF xmlns:dc="http://purl.org/dc/elements/1.1/" xmlns:cc="http://creativecommons.org/ns#" xmlns:rdf="http://www.w3.org/1999/02/22-rdf-syntax-ns#">
   <cc:Work>
    <dc:type rdf:resource="http://purl.org/dc/dcmitype/StillImage"/>
    <dc:date>2026-05-03T22:24:45.737834</dc:date>
    <dc:format>image/svg+xml</dc:format>
    <dc:creator>
     <cc:Agent>
      <dc:title>Matplotlib v3.10.8, https://matplotlib.org/</dc:title>
     </cc:Agent>
    </dc:creator>
   </cc:Work>
  </rdf:RDF>
 </metadata>
 <defs>
  <style type="text/css">*{stroke-linejoin: round; stroke-linecap: butt}</style>
 </defs>
 <g id="figure_1">
  <g id="patch_1">
   <path d="M 0 382.433413 
L 468.203125 382.433413 
L 468.203125 -0 
L 0 -0 
z
" style="fill: #ffffff"/>
  </g>
  <g id="axes_1">
   <g id="patch_2">
    <path d="M 46.339375 286.100439 
L 450.889375 286.100439 
L 450.889375 23.229937 
L 46.339375 23.229937 
z
" style="fill: #ffffff"/>
   </g>
   <g id="matplotlib.axis_1">
    <g id="xtick_1">
     <g id="line2d_1">
      <path d="M 46.339375 286.100439 
L 46.339375 23.229937 
" clip-path="url(#p50e16615ad)" style="fill: none; stroke: #b0b0b0; stroke-opacity: 0.3; stroke-width: 0.8; stroke-linecap: square"/>
     </g>
     <g id="line2d_2">
      <defs>
       <path id="m9aa2c7a49b" d="M 0 0 
L 0 3.5 
" style="stroke: #000000; stroke-width: 0.8"/>
      </defs>
      <g>
       <use xlink:href="#m9aa2c7a49b" x="46.339375" y="286.100439" style="stroke: #000000; stroke-width: 0.8"/>
      </g>
     </g>
     <g id="text_1">
      <!-- 0 -->
      <g transform="translate(42.84 301.45872) scale(0.11 -0.11)">
       <defs>
        <path id="DejaVuSans-30" d="M 2034 4250 
Q 1547 4250 1301 3770 
Q 1056 3291 1056 2328 
Q 1056 1369 1301 889 
Q 1547 409 2034 409 
Q 2525 409 2770 889 
Q 3016 1369 3016 2328 
Q 3016 3291 2770 3770 
Q 2525 4250 2034 4250 
z
M 2034 4750 
Q 2819 4750 3233 4129 
Q 3647 3509 3647 2328 
Q 3647 1150 3233 529 
Q 2819 -91 2034 -91 
Q 1250 -91 836 529 
Q 422 1150 422 2328 
Q 422 3509 836 4129 
Q 1250 4750 2034 4750 
z
" transform="scale(0.015625)"/>
       </defs>
       <use xlink:href="#DejaVuSans-30"/>
      </g>
     </g>
    </g>
    <g id="xtick_2">
     <g id="line2d_3">
      <path d="M 100.279375 286.100439 
L 100.279375 23.229937 
" clip-path="url(#p50e16615ad)" style="fill: none; stroke: #b0b0b0; stroke-opacity: 0.3; stroke-width: 0.8; stroke-linecap: square"/>
     </g>
     <g id="line2d_4">
      <g>
       <use xlink:href="#m9aa2c7a49b" x="100.279375" y="286.100439" style="stroke: #000000; stroke-width: 0.8"/>
      </g>
     </g>
     <g id="text_2">
      <!-- 2 -->
      <g transform="translate(96.78 301.45872) scale(0.11 -0.11)">
       <defs>
        <path id="DejaVuSans-32" d="M 1228 531 
L 3431 531 
L 3431 0 
L 469 0 
L 469 531 
Q 828 903 1448 1529 
Q 2069 2156 2228 2338 
Q 2531 2678 2651 2914 
Q 2772 3150 2772 3378 
Q 2772 3750 2511 3984 
Q 2250 4219 1831 4219 
Q 1534 4219 1204 4116 
Q 875 4013 500 3803 
L 500 4441 
Q 881 4594 1212 4672 
Q 1544 4750 1819 4750 
Q 2544 4750 2975 4387 
Q 3406 4025 3406 3419 
Q 3406 3131 3298 2873 
Q 3191 2616 2906 2266 
Q 2828 2175 2409 1742 
Q 1991 1309 1228 531 
z
" transform="scale(0.015625)"/>
       </defs>
       <use xlink:href="#DejaVuSans-32"/>
      </g>
     </g>
    </g>
    <g id="xtick_3">
     <g id="line2d_5">
      <path d="M 154.219375 286.100439 
L 154.219375 23.229937 
" clip-path="url(#p50e16615ad)" style="fill: none; stroke: #b0b0b0; stroke-opacity: 0.3; stroke-width: 0.8; stroke-linecap: square"/>
     </g>
     <g id="line2d_6">
      <g>
       <use xlink:href="#m9aa2c7a49b" x="154.219375" y="286.100439" style="stroke: #000000; stroke-width: 0.8"/>
      </g>
     </g>
     <g id="text_3">
      <!-- 4 -->
      <g transform="translate(150.72 301.45872) scale(0.11 -0.11)">
       <defs>
        <path id="DejaVuSans-34" d="M 2419 4116 
L 825 1625 
L 2419 1625 
L 2419 4116 
z
M 2253 4666 
L 3047 4666 
L 3047 1625 
L 3713 1625 
L 3713 1100 
L 3047 1100 
L 3047 0 
L 2419 0 
L 2419 1100 
L 313 1100 
L 313 1709 
L 2253 4666 
z
" transform="scale(0.015625)"/>
       </defs>
       <use xlink:href="#DejaVuSans-34"/>
      </g>
     </g>
    </g>
    <g id="xtick_4">
     <g id="line2d_7">
      <path d="M 208.159375 286.100439 
L 208.159375 23.229937 
" clip-path="url(#p50e16615ad)" style="fill: none; stroke: #b0b0b0; stroke-opacity: 0.3; stroke-width: 0.8; stroke-linecap: square"/>
     </g>
     <g id="line2d_8">
      <g>
       <use xlink:href="#m9aa2c7a49b" x="208.159375" y="286.100439" style="stroke: #000000; stroke-width: 0.8"/>
      </g>
     </g>
     <g id="text_4">
      <!-- 6 -->
      <g transform="translate(204.66 301.45872) scale(0.11 -0.11)">
       <defs>
        <path id="DejaVuSans-36" d="M 2113 2584 
Q 1688 2584 1439 2293 
Q 1191 2003 1191 1497 
Q 1191 994 1439 701 
Q 1688 409 2113 409 
Q 2538 409 2786 701 
Q 3034 994 3034 1497 
Q 3034 2003 2786 2293 
Q 2538 2584 2113 2584 
z
M 3366 4563 
L 3366 3988 
Q 3128 4100 2886 4159 
Q 2644 4219 2406 4219 
Q 1781 4219 1451 3797 
Q 1122 3375 1075 2522 
Q 1259 2794 1537 2939 
Q 1816 3084 2150 3084 
Q 2853 3084 3261 2657 
Q 3669 2231 3669 1497 
Q 3669 778 3244 343 
Q 2819 -91 2113 -91 
Q 1303 -91 875 529 
Q 447 1150 447 2328 
Q 447 3434 972 4092 
Q 1497 4750 2381 4750 
Q 2619 4750 2861 4703 
Q 3103 4656 3366 4563 
z
" transform="scale(0.015625)"/>
       </defs>
       <use xlink:href="#DejaVuSans-36"/>
      </g>
     </g>
    </g>
    <g id="xtick_5">
     <g id="line2d_9">
      <path d="M 262.099375 286.100439 
L 262.099375 23.229937 
" clip-path="url(#p50e16615ad)" style="fill: none; stroke: #b0b0b0; stroke-opacity: 0.3; stroke-width: 0.8; stroke-linecap: square"/>
     </g>
     <g id="line2d_10">
      <g>
       <use xlink:href="#m9aa2c7a49b" x="262.099375" y="286.100439" style="stroke: #000000; stroke-width: 0.8"/>
      </g>
     </g>
     <g id="text_5">
      <!-- 8 -->
      <g transform="translate(258.6 301.45872) scale(0.11 -0.11)">
       <defs>
        <path id="DejaVuSans-38" d="M 2034 2216 
Q 1584 2216 1326 1975 
Q 1069 1734 1069 1313 
Q 1069 891 1326 650 
Q 1584 409 2034 409 
Q 2484 409 2743 651 
Q 3003 894 3003 1313 
Q 3003 1734 2745 1975 
Q 2488 2216 2034 2216 
z
M 1403 2484 
Q 997 2584 770 2862 
Q 544 3141 544 3541 
Q 544 4100 942 4425 
Q 1341 4750 2034 4750 
Q 2731 4750 3128 4425 
Q 3525 4100 3525 3541 
Q 3525 3141 3298 2862 
Q 3072 2584 2669 2484 
Q 3125 2378 3379 2068 
Q 3634 1759 3634 1313 
Q 3634 634 3220 271 
Q 2806 -91 2034 -91 
Q 1263 -91 848 271 
Q 434 634 434 1313 
Q 434 1759 690 2068 
Q 947 2378 1403 2484 
z
M 1172 3481 
Q 1172 3119 1398 2916 
Q 1625 2713 2034 2713 
Q 2441 2713 2670 2916 
Q 2900 3119 2900 3481 
Q 2900 3844 2670 4047 
Q 2441 4250 2034 4250 
Q 1625 4250 1398 4047 
Q 1172 3844 1172 3481 
z
" transform="scale(0.015625)"/>
       </defs>
       <use xlink:href="#DejaVuSans-38"/>
      </g>
     </g>
    </g>
    <g id="xtick_6">
     <g id="line2d_11">
      <path d="M 316.039375 286.100439 
L 316.039375 23.229937 
" clip-path="url(#p50e16615ad)" style="fill: none; stroke: #b0b0b0; stroke-opacity: 0.3; stroke-width: 0.8; stroke-linecap: square"/>
     </g>
     <g id="line2d_12">
      <g>
       <use xlink:href="#m9aa2c7a49b" x="316.039375" y="286.100439" style="stroke: #000000; stroke-width: 0.8"/>
      </g>
     </g>
     <g id="text_6">
      <!-- 10 -->
      <g transform="translate(309.040625 301.45872) scale(0.11 -0.11)">
       <defs>
        <path id="DejaVuSans-31" d="M 794 531 
L 1825 531 
L 1825 4091 
L 703 3866 
L 703 4441 
L 1819 4666 
L 2450 4666 
L 2450 531 
L 3481 531 
L 3481 0 
L 794 0 
L 794 531 
z
" transform="scale(0.015625)"/>
       </defs>
       <use xlink:href="#DejaVuSans-31"/>
       <use xlink:href="#DejaVuSans-30" transform="translate(63.623047 0)"/>
      </g>
     </g>
    </g>
    <g id="xtick_7">
     <g id="line2d_13">
      <path d="M 369.979375 286.100439 
L 369.979375 23.229937 
" clip-path="url(#p50e16615ad)" style="fill: none; stroke: #b0b0b0; stroke-opacity: 0.3; stroke-width: 0.8; stroke-linecap: square"/>
     </g>
     <g id="line2d_14">
      <g>
       <use xlink:href="#m9aa2c7a49b" x="369.979375" y="286.100439" style="stroke: #000000; stroke-width: 0.8"/>
      </g>
     </g>
     <g id="text_7">
      <!-- 12 -->
      <g transform="translate(362.980625 301.45872) scale(0.11 -0.11)">
       <use xlink:href="#DejaVuSans-31"/>
       <use xlink:href="#DejaVuSans-32" transform="translate(63.623047 0)"/>
      </g>
     </g>
    </g>
    <g id="xtick_8">
     <g id="line2d_15">
      <path d="M 423.919375 286.100439 
L 423.919375 23.229937 
" clip-path="url(#p50e16615ad)" style="fill: none; stroke: #b0b0b0; stroke-opacity: 0.3; stroke-width: 0.8; stroke-linecap: square"/>
     </g>
     <g id="line2d_16">
      <g>
       <use xlink:href="#m9aa2c7a49b" x="423.919375" y="286.100439" style="stroke: #000000; stroke-width: 0.8"/>
      </g>
     </g>
     <g id="text_8">
      <!-- 14 -->
      <g transform="translate(416.920625 301.45872) scale(0.11 -0.11)">
       <use xlink:href="#DejaVuSans-31"/>
       <use xlink:href="#DejaVuSans-34" transform="translate(63.623047 0)"/>
      </g>
     </g>
    </g>
    <g id="text_9">
     <!-- Time (years) -->
     <g transform="translate(213.981562 316.104657) scale(0.11 -0.11)">
      <defs>
       <path id="DejaVuSans-54" d="M -19 4666 
L 3928 4666 
L 3928 4134 
L 2272 4134 
L 2272 0 
L 1638 0 
L 1638 4134 
L -19 4134 
L -19 4666 
z
" transform="scale(0.015625)"/>
       <path id="DejaVuSans-69" d="M 603 3500 
L 1178 3500 
L 1178 0 
L 603 0 
L 603 3500 
z
M 603 4863 
L 1178 4863 
L 1178 4134 
L 603 4134 
L 603 4863 
z
" transform="scale(0.015625)"/>
       <path id="DejaVuSans-6d" d="M 3328 2828 
Q 3544 3216 3844 3400 
Q 4144 3584 4550 3584 
Q 5097 3584 5394 3201 
Q 5691 2819 5691 2113 
L 5691 0 
L 5113 0 
L 5113 2094 
Q 5113 2597 4934 2840 
Q 4756 3084 4391 3084 
Q 3944 3084 3684 2787 
Q 3425 2491 3425 1978 
L 3425 0 
L 2847 0 
L 2847 2094 
Q 2847 2600 2669 2842 
Q 2491 3084 2119 3084 
Q 1678 3084 1418 2786 
Q 1159 2488 1159 1978 
L 1159 0 
L 581 0 
L 581 3500 
L 1159 3500 
L 1159 2956 
Q 1356 3278 1631 3431 
Q 1906 3584 2284 3584 
Q 2666 3584 2933 3390 
Q 3200 3197 3328 2828 
z
" transform="scale(0.015625)"/>
       <path id="DejaVuSans-65" d="M 3597 1894 
L 3597 1613 
L 953 1613 
Q 991 1019 1311 708 
Q 1631 397 2203 397 
Q 2534 397 2845 478 
Q 3156 559 3463 722 
L 3463 178 
Q 3153 47 2828 -22 
Q 2503 -91 2169 -91 
Q 1331 -91 842 396 
Q 353 884 353 1716 
Q 353 2575 817 3079 
Q 1281 3584 2069 3584 
Q 2775 3584 3186 3129 
Q 3597 2675 3597 1894 
z
M 3022 2063 
Q 3016 2534 2758 2815 
Q 2500 3097 2075 3097 
Q 1594 3097 1305 2825 
Q 1016 2553 972 2059 
L 3022 2063 
z
" transform="scale(0.015625)"/>
       <path id="DejaVuSans-20" transform="scale(0.015625)"/>
       <path id="DejaVuSans-28" d="M 1984 4856 
Q 1566 4138 1362 3434 
Q 1159 2731 1159 2009 
Q 1159 1288 1364 580 
Q 1569 -128 1984 -844 
L 1484 -844 
Q 1016 -109 783 600 
Q 550 1309 550 2009 
Q 550 2706 781 3412 
Q 1013 4119 1484 4856 
L 1984 4856 
z
" transform="scale(0.015625)"/>
       <path id="DejaVuSans-79" d="M 2059 -325 
Q 1816 -950 1584 -1140 
Q 1353 -1331 966 -1331 
L 506 -1331 
L 506 -850 
L 844 -850 
Q 1081 -850 1212 -737 
Q 1344 -625 1503 -206 
L 1606 56 
L 191 3500 
L 800 3500 
L 1894 763 
L 2988 3500 
L 3597 3500 
L 2059 -325 
z
" transform="scale(0.015625)"/>
       <path id="DejaVuSans-61" d="M 2194 1759 
Q 1497 1759 1228 1600 
Q 959 1441 959 1056 
Q 959 750 1161 570 
Q 1363 391 1709 391 
Q 2188 391 2477 730 
Q 2766 1069 2766 1631 
L 2766 1759 
L 2194 1759 
z
M 3341 1997 
L 3341 0 
L 2766 0 
L 2766 531 
Q 2569 213 2275 61 
Q 1981 -91 1556 -91 
Q 1019 -91 701 211 
Q 384 513 384 1019 
Q 384 1609 779 1909 
Q 1175 2209 1959 2209 
L 2766 2209 
L 2766 2266 
Q 2766 2663 2505 2880 
Q 2244 3097 1772 3097 
Q 1472 3097 1187 3025 
Q 903 2953 641 2809 
L 641 3341 
Q 956 3463 1253 3523 
Q 1550 3584 1831 3584 
Q 2591 3584 2966 3190 
Q 3341 2797 3341 1997 
z
" transform="scale(0.015625)"/>
       <path id="DejaVuSans-72" d="M 2631 2963 
Q 2534 3019 2420 3045 
Q 2306 3072 2169 3072 
Q 1681 3072 1420 2755 
Q 1159 2438 1159 1844 
L 1159 0 
L 581 0 
L 581 3500 
L 1159 3500 
L 1159 2956 
Q 1341 3275 1631 3429 
Q 1922 3584 2338 3584 
Q 2397 3584 2469 3576 
Q 2541 3569 2628 3553 
L 2631 2963 
z
" transform="scale(0.015625)"/>
       <path id="DejaVuSans-73" d="M 2834 3397 
L 2834 2853 
Q 2591 2978 2328 3040 
Q 2066 3103 1784 3103 
Q 1356 3103 1142 2972 
Q 928 2841 928 2578 
Q 928 2378 1081 2264 
Q 1234 2150 1697 2047 
L 1894 2003 
Q 2506 1872 2764 1633 
Q 3022 1394 3022 966 
Q 3022 478 2636 193 
Q 2250 -91 1575 -91 
Q 1294 -91 989 -36 
Q 684 19 347 128 
L 347 722 
Q 666 556 975 473 
Q 1284 391 1588 391 
Q 1994 391 2212 530 
Q 2431 669 2431 922 
Q 2431 1156 2273 1281 
Q 2116 1406 1581 1522 
L 1381 1569 
Q 847 1681 609 1914 
Q 372 2147 372 2553 
Q 372 3047 722 3315 
Q 1072 3584 1716 3584 
Q 2034 3584 2315 3537 
Q 2597 3491 2834 3397 
z
" transform="scale(0.015625)"/>
       <path id="DejaVuSans-29" d="M 513 4856 
L 1013 4856 
Q 1481 4119 1714 3412 
Q 1947 2706 1947 2009 
Q 1947 1309 1714 600 
Q 1481 -109 1013 -844 
L 513 -844 
Q 928 -128 1133 580 
Q 1338 1288 1338 2009 
Q 1338 2731 1133 3434 
Q 928 4138 513 4856 
z
" transform="scale(0.015625)"/>
      </defs>
      <use xlink:href="#DejaVuSans-54"/>
      <use xlink:href="#DejaVuSans-69" transform="translate(57.958984 0)"/>
      <use xlink:href="#DejaVuSans-6d" transform="translate(85.742188 0)"/>
      <use xlink:href="#DejaVuSans-65" transform="translate(183.154297 0)"/>
      <use xlink:href="#DejaVuSans-20" transform="translate(244.677734 0)"/>
      <use xlink:href="#DejaVuSans-28" transform="translate(276.464844 0)"/>
      <use xlink:href="#DejaVuSans-79" transform="translate(315.478516 0)"/>
      <use xlink:href="#DejaVuSans-65" transform="translate(374.658203 0)"/>
      <use xlink:href="#DejaVuSans-61" transform="translate(436.181641 0)"/>
      <use xlink:href="#DejaVuSans-72" transform="translate(497.460938 0)"/>
      <use xlink:href="#DejaVuSans-73" transform="translate(538.574219 0)"/>
      <use xlink:href="#DejaVuSans-29" transform="translate(590.673828 0)"/>
     </g>
    </g>
   </g>
   <g id="matplotlib.axis_2">
    <g id="ytick_1">
     <g id="line2d_17">
      <path d="M 46.339375 263.041623 
L 450.889375 263.041623 
" clip-path="url(#p50e16615ad)" style="fill: none; stroke: #b0b0b0; stroke-opacity: 0.3; stroke-width: 0.8; stroke-linecap: square"/>
     </g>
     <g id="line2d_18">
      <defs>
       <path id="m8e1504dc50" d="M 0 0 
L -3.5 0 
" style="stroke: #000000; stroke-width: 0.8"/>
      </defs>
      <g>
       <use xlink:href="#m8e1504dc50" x="46.339375" y="263.041623" style="stroke: #000000; stroke-width: 0.8"/>
      </g>
     </g>
     <g id="text_10">
      <!-- 0.5 -->
      <g transform="translate(21.845938 267.220763) scale(0.11 -0.11)">
       <defs>
        <path id="DejaVuSans-2e" d="M 684 794 
L 1344 794 
L 1344 0 
L 684 0 
L 684 794 
z
" transform="scale(0.015625)"/>
        <path id="DejaVuSans-35" d="M 691 4666 
L 3169 4666 
L 3169 4134 
L 1269 4134 
L 1269 2991 
Q 1406 3038 1543 3061 
Q 1681 3084 1819 3084 
Q 2600 3084 3056 2656 
Q 3513 2228 3513 1497 
Q 3513 744 3044 326 
Q 2575 -91 1722 -91 
Q 1428 -91 1123 -41 
Q 819 9 494 109 
L 494 744 
Q 775 591 1075 516 
Q 1375 441 1709 441 
Q 2250 441 2565 725 
Q 2881 1009 2881 1497 
Q 2881 1984 2565 2268 
Q 2250 2553 1709 2553 
Q 1456 2553 1204 2497 
Q 953 2441 691 2322 
L 691 4666 
z
" transform="scale(0.015625)"/>
       </defs>
       <use xlink:href="#DejaVuSans-30"/>
       <use xlink:href="#DejaVuSans-2e" transform="translate(63.623047 0)"/>
       <use xlink:href="#DejaVuSans-35" transform="translate(95.410156 0)"/>
      </g>
     </g>
    </g>
    <g id="ytick_2">
     <g id="line2d_19">
      <path d="M 46.339375 216.923991 
L 450.889375 216.923991 
" clip-path="url(#p50e16615ad)" style="fill: none; stroke: #b0b0b0; stroke-opacity: 0.3; stroke-width: 0.8; stroke-linecap: square"/>
     </g>
     <g id="line2d_20">
      <g>
       <use xlink:href="#m8e1504dc50" x="46.339375" y="216.923991" style="stroke: #000000; stroke-width: 0.8"/>
      </g>
     </g>
     <g id="text_11">
      <!-- 0.6 -->
      <g transform="translate(21.845938 221.103132) scale(0.11 -0.11)">
       <use xlink:href="#DejaVuSans-30"/>
       <use xlink:href="#DejaVuSans-2e" transform="translate(63.623047 0)"/>
       <use xlink:href="#DejaVuSans-36" transform="translate(95.410156 0)"/>
      </g>
     </g>
    </g>
    <g id="ytick_3">
     <g id="line2d_21">
      <path d="M 46.339375 170.806359 
L 450.889375 170.806359 
" clip-path="url(#p50e16615ad)" style="fill: none; stroke: #b0b0b0; stroke-opacity: 0.3; stroke-width: 0.8; stroke-linecap: square"/>
     </g>
     <g id="line2d_22">
      <g>
       <use xlink:href="#m8e1504dc50" x="46.339375" y="170.806359" style="stroke: #000000; stroke-width: 0.8"/>
      </g>
     </g>
     <g id="text_12">
      <!-- 0.7 -->
      <g transform="translate(21.845938 174.9855) scale(0.11 -0.11)">
       <defs>
        <path id="DejaVuSans-37" d="M 525 4666 
L 3525 4666 
L 3525 4397 
L 1831 0 
L 1172 0 
L 2766 4134 
L 525 4134 
L 525 4666 
z
" transform="scale(0.015625)"/>
       </defs>
       <use xlink:href="#DejaVuSans-30"/>
       <use xlink:href="#DejaVuSans-2e" transform="translate(63.623047 0)"/>
       <use xlink:href="#DejaVuSans-37" transform="translate(95.410156 0)"/>
      </g>
     </g>
    </g>
    <g id="ytick_4">
     <g id="line2d_23">
      <path d="M 46.339375 124.688727 
L 450.889375 124.688727 
" clip-path="url(#p50e16615ad)" style="fill: none; stroke: #b0b0b0; stroke-opacity: 0.3; stroke-width: 0.8; stroke-linecap: square"/>
     </g>
     <g id="line2d_24">
      <g>
       <use xlink:href="#m8e1504dc50" x="46.339375" y="124.688727" style="stroke: #000000; stroke-width: 0.8"/>
      </g>
     </g>
     <g id="text_13">
      <!-- 0.8 -->
      <g transform="translate(21.845938 128.867868) scale(0.11 -0.11)">
       <use xlink:href="#DejaVuSans-30"/>
       <use xlink:href="#DejaVuSans-2e" transform="translate(63.623047 0)"/>
       <use xlink:href="#DejaVuSans-38" transform="translate(95.410156 0)"/>
      </g>
     </g>
    </g>
    <g id="ytick_5">
     <g id="line2d_25">
      <path d="M 46.339375 78.571096 
L 450.889375 78.571096 
" clip-path="url(#p50e16615ad)" style="fill: none; stroke: #b0b0b0; stroke-opacity: 0.3; stroke-width: 0.8; stroke-linecap: square"/>
     </g>
     <g id="line2d_26">
      <g>
       <use xlink:href="#m8e1504dc50" x="46.339375" y="78.571096" style="stroke: #000000; stroke-width: 0.8"/>
      </g>
     </g>
     <g id="text_14">
      <!-- 0.9 -->
      <g transform="translate(21.845938 82.750236) scale(0.11 -0.11)">
       <defs>
        <path id="DejaVuSans-39" d="M 703 97 
L 703 672 
Q 941 559 1184 500 
Q 1428 441 1663 441 
Q 2288 441 2617 861 
Q 2947 1281 2994 2138 
Q 2813 1869 2534 1725 
Q 2256 1581 1919 1581 
Q 1219 1581 811 2004 
Q 403 2428 403 3163 
Q 403 3881 828 4315 
Q 1253 4750 1959 4750 
Q 2769 4750 3195 4129 
Q 3622 3509 3622 2328 
Q 3622 1225 3098 567 
Q 2575 -91 1691 -91 
Q 1453 -91 1209 -44 
Q 966 3 703 97 
z
M 1959 2075 
Q 2384 2075 2632 2365 
Q 2881 2656 2881 3163 
Q 2881 3666 2632 3958 
Q 2384 4250 1959 4250 
Q 1534 4250 1286 3958 
Q 1038 3666 1038 3163 
Q 1038 2656 1286 2365 
Q 1534 2075 1959 2075 
z
" transform="scale(0.015625)"/>
       </defs>
       <use xlink:href="#DejaVuSans-30"/>
       <use xlink:href="#DejaVuSans-2e" transform="translate(63.623047 0)"/>
       <use xlink:href="#DejaVuSans-39" transform="translate(95.410156 0)"/>
      </g>
     </g>
    </g>
    <g id="ytick_6">
     <g id="line2d_27">
      <path d="M 46.339375 32.453464 
L 450.889375 32.453464 
" clip-path="url(#p50e16615ad)" style="fill: none; stroke: #b0b0b0; stroke-opacity: 0.3; stroke-width: 0.8; stroke-linecap: square"/>
     </g>
     <g id="line2d_28">
      <g>
       <use xlink:href="#m8e1504dc50" x="46.339375" y="32.453464" style="stroke: #000000; stroke-width: 0.8"/>
      </g>
     </g>
     <g id="text_15">
      <!-- 1.0 -->
      <g transform="translate(21.845938 36.632604) scale(0.11 -0.11)">
       <use xlink:href="#DejaVuSans-31"/>
       <use xlink:href="#DejaVuSans-2e" transform="translate(63.623047 0)"/>
       <use xlink:href="#DejaVuSans-30" transform="translate(95.410156 0)"/>
      </g>
     </g>
    </g>
    <g id="text_16">
     <!-- Recurrence-free survival -->
     <g transform="translate(15.558281 221.836516) rotate(-90) scale(0.11 -0.11)">
      <defs>
       <path id="DejaVuSans-52" d="M 2841 2188 
Q 3044 2119 3236 1894 
Q 3428 1669 3622 1275 
L 4263 0 
L 3584 0 
L 2988 1197 
Q 2756 1666 2539 1819 
Q 2322 1972 1947 1972 
L 1259 1972 
L 1259 0 
L 628 0 
L 628 4666 
L 2053 4666 
Q 2853 4666 3247 4331 
Q 3641 3997 3641 3322 
Q 3641 2881 3436 2590 
Q 3231 2300 2841 2188 
z
M 1259 4147 
L 1259 2491 
L 2053 2491 
Q 2509 2491 2742 2702 
Q 2975 2913 2975 3322 
Q 2975 3731 2742 3939 
Q 2509 4147 2053 4147 
L 1259 4147 
z
" transform="scale(0.015625)"/>
       <path id="DejaVuSans-63" d="M 3122 3366 
L 3122 2828 
Q 2878 2963 2633 3030 
Q 2388 3097 2138 3097 
Q 1578 3097 1268 2742 
Q 959 2388 959 1747 
Q 959 1106 1268 751 
Q 1578 397 2138 397 
Q 2388 397 2633 464 
Q 2878 531 3122 666 
L 3122 134 
Q 2881 22 2623 -34 
Q 2366 -91 2075 -91 
Q 1284 -91 818 406 
Q 353 903 353 1747 
Q 353 2603 823 3093 
Q 1294 3584 2113 3584 
Q 2378 3584 2631 3529 
Q 2884 3475 3122 3366 
z
" transform="scale(0.015625)"/>
       <path id="DejaVuSans-75" d="M 544 1381 
L 544 3500 
L 1119 3500 
L 1119 1403 
Q 1119 906 1312 657 
Q 1506 409 1894 409 
Q 2359 409 2629 706 
Q 2900 1003 2900 1516 
L 2900 3500 
L 3475 3500 
L 3475 0 
L 2900 0 
L 2900 538 
Q 2691 219 2414 64 
Q 2138 -91 1772 -91 
Q 1169 -91 856 284 
Q 544 659 544 1381 
z
M 1991 3584 
L 1991 3584 
z
" transform="scale(0.015625)"/>
       <path id="DejaVuSans-6e" d="M 3513 2113 
L 3513 0 
L 2938 0 
L 2938 2094 
Q 2938 2591 2744 2837 
Q 2550 3084 2163 3084 
Q 1697 3084 1428 2787 
Q 1159 2491 1159 1978 
L 1159 0 
L 581 0 
L 581 3500 
L 1159 3500 
L 1159 2956 
Q 1366 3272 1645 3428 
Q 1925 3584 2291 3584 
Q 2894 3584 3203 3211 
Q 3513 2838 3513 2113 
z
" transform="scale(0.015625)"/>
       <path id="DejaVuSans-2d" d="M 313 2009 
L 1997 2009 
L 1997 1497 
L 313 1497 
L 313 2009 
z
" transform="scale(0.015625)"/>
       <path id="DejaVuSans-66" d="M 2375 4863 
L 2375 4384 
L 1825 4384 
Q 1516 4384 1395 4259 
Q 1275 4134 1275 3809 
L 1275 3500 
L 2222 3500 
L 2222 3053 
L 1275 3053 
L 1275 0 
L 697 0 
L 697 3053 
L 147 3053 
L 147 3500 
L 697 3500 
L 697 3744 
Q 697 4328 969 4595 
Q 1241 4863 1831 4863 
L 2375 4863 
z
" transform="scale(0.015625)"/>
       <path id="DejaVuSans-76" d="M 191 3500 
L 800 3500 
L 1894 563 
L 2988 3500 
L 3597 3500 
L 2284 0 
L 1503 0 
L 191 3500 
z
" transform="scale(0.015625)"/>
       <path id="DejaVuSans-6c" d="M 603 4863 
L 1178 4863 
L 1178 0 
L 603 0 
L 603 4863 
z
" transform="scale(0.015625)"/>
      </defs>
      <use xlink:href="#DejaVuSans-52"/>
      <use xlink:href="#DejaVuSans-65" transform="translate(64.982422 0)"/>
      <use xlink:href="#DejaVuSans-63" transform="translate(126.505859 0)"/>
      <use xlink:href="#DejaVuSans-75" transform="translate(181.486328 0)"/>
      <use xlink:href="#DejaVuSans-72" transform="translate(244.865234 0)"/>
      <use xlink:href="#DejaVuSans-72" transform="translate(284.228516 0)"/>
      <use xlink:href="#DejaVuSans-65" transform="translate(323.091797 0)"/>
      <use xlink:href="#DejaVuSans-6e" transform="translate(384.615234 0)"/>
      <use xlink:href="#DejaVuSans-63" transform="translate(447.994141 0)"/>
      <use xlink:href="#DejaVuSans-65" transform="translate(502.974609 0)"/>
      <use xlink:href="#DejaVuSans-2d" transform="translate(564.498047 0)"/>
      <use xlink:href="#DejaVuSans-66" transform="translate(600.582031 0)"/>
      <use xlink:href="#DejaVuSans-72" transform="translate(635.787109 0)"/>
      <use xlink:href="#DejaVuSans-65" transform="translate(674.650391 0)"/>
      <use xlink:href="#DejaVuSans-65" transform="translate(736.173828 0)"/>
      <use xlink:href="#DejaVuSans-20" transform="translate(797.697266 0)"/>
      <use xlink:href="#DejaVuSans-73" transform="translate(829.484375 0)"/>
      <use xlink:href="#DejaVuSans-75" transform="translate(881.583984 0)"/>
      <use xlink:href="#DejaVuSans-72" transform="translate(944.962891 0)"/>
      <use xlink:href="#DejaVuSans-76" transform="translate(986.076172 0)"/>
      <use xlink:href="#DejaVuSans-69" transform="translate(1045.255859 0)"/>
      <use xlink:href="#DejaVuSans-76" transform="translate(1073.039062 0)"/>
      <use xlink:href="#DejaVuSans-61" transform="translate(1132.21875 0)"/>
      <use xlink:href="#DejaVuSans-6c" transform="translate(1193.498047 0)"/>
     </g>
    </g>
   </g>
   <g id="line2d_29">
    <path d="M 46.339375 32.453464 
L 59.824375 32.453464 
L 59.824375 83.782388 
L 73.309375 83.782388 
L 73.309375 83.782388 
L 100.279375 83.782388 
L 100.279375 130.038373 
L 127.249375 130.038373 
L 127.249375 158.677422 
L 181.189375 158.677422 
L 181.189375 198.615291 
L 235.129375 198.615291 
L 235.129375 215.724932 
L 316.039375 215.724932 
L 316.039375 226.424223 
L 450.889375 226.424223 
L 450.889375 226.424223 
" clip-path="url(#p50e16615ad)" style="fill: none; stroke: #999999; stroke-width: 2; stroke-linecap: square"/>
   </g>
   <g id="line2d_30">
    <path d="M 46.339375 32.453464 
L 59.824375 32.453464 
L 59.824375 79.954625 
L 73.309375 79.954625 
L 73.309375 89.178151 
L 100.279375 89.178151 
L 100.279375 95.404031 
L 127.249375 95.404031 
L 127.249375 101.537676 
L 181.189375 101.537676 
L 181.189375 109.931085 
L 235.129375 109.931085 
L 235.129375 117.079318 
L 316.039375 117.079318 
L 316.039375 121.921669 
L 450.889375 121.921669 
L 450.889375 123.628022 
" clip-path="url(#p50e16615ad)" style="fill: none; stroke: #1f77b4; stroke-width: 2; stroke-linecap: square"/>
   </g>
   <g id="line2d_31">
    <path d="M 46.339375 32.453464 
L 59.824375 32.453464 
L 59.824375 75.066156 
L 73.309375 75.066156 
L 73.309375 92.452503 
L 100.279375 92.452503 
L 100.279375 114.911789 
L 127.249375 114.911789 
L 127.249375 124.273669 
L 181.189375 124.273669 
L 181.189375 135.710841 
L 235.129375 135.710841 
L 235.129375 147.885896 
L 316.039375 147.885896 
L 316.039375 180.72165 
L 450.889375 180.72165 
L 450.889375 187.132001 
" clip-path="url(#p50e16615ad)" style="fill: none; stroke: #d62728; stroke-width: 2; stroke-linecap: square"/>
   </g>
   <g id="patch_3">
    <path d="M 46.339375 286.100439 
L 46.339375 23.229938 
" style="fill: none; stroke: #000000; stroke-width: 0.8; stroke-linejoin: miter; stroke-linecap: square"/>
   </g>
   <g id="patch_4">
    <path d="M 450.889375 286.100439 
L 450.889375 23.229938 
" style="fill: none; stroke: #000000; stroke-width: 0.8; stroke-linejoin: miter; stroke-linecap: square"/>
   </g>
   <g id="patch_5">
    <path d="M 46.339375 286.100439 
L 450.889375 286.100439 
" style="fill: none; stroke: #000000; stroke-width: 0.8; stroke-linejoin: miter; stroke-linecap: square"/>
   </g>
   <g id="patch_6">
    <path d="M 46.339375 23.229937 
L 450.889375 23.229937 
" style="fill: none; stroke: #000000; stroke-width: 0.8; stroke-linejoin: miter; stroke-linecap: square"/>
   </g>
   <g id="text_17">
    <!-- Log-rank $p$ = 0.001 -->
    <g transform="translate(345.798375 273.485619) scale(0.1 -0.1)">
     <defs>
      <path id="DejaVuSans-4c" d="M 628 4666 
L 1259 4666 
L 1259 531 
L 3531 531 
L 3531 0 
L 628 0 
L 628 4666 
z
" transform="scale(0.015625)"/>
      <path id="DejaVuSans-6f" d="M 1959 3097 
Q 1497 3097 1228 2736 
Q 959 2375 959 1747 
Q 959 1119 1226 758 
Q 1494 397 1959 397 
Q 2419 397 2687 759 
Q 2956 1122 2956 1747 
Q 2956 2369 2687 2733 
Q 2419 3097 1959 3097 
z
M 1959 3584 
Q 2709 3584 3137 3096 
Q 3566 2609 3566 1747 
Q 3566 888 3137 398 
Q 2709 -91 1959 -91 
Q 1206 -91 779 398 
Q 353 888 353 1747 
Q 353 2609 779 3096 
Q 1206 3584 1959 3584 
z
" transform="scale(0.015625)"/>
      <path id="DejaVuSans-67" d="M 2906 1791 
Q 2906 2416 2648 2759 
Q 2391 3103 1925 3103 
Q 1463 3103 1205 2759 
Q 947 2416 947 1791 
Q 947 1169 1205 825 
Q 1463 481 1925 481 
Q 2391 481 2648 825 
Q 2906 1169 2906 1791 
z
M 3481 434 
Q 3481 -459 3084 -895 
Q 2688 -1331 1869 -1331 
Q 1566 -1331 1297 -1286 
Q 1028 -1241 775 -1147 
L 775 -588 
Q 1028 -725 1275 -790 
Q 1522 -856 1778 -856 
Q 2344 -856 2625 -561 
Q 2906 -266 2906 331 
L 2906 616 
Q 2728 306 2450 153 
Q 2172 0 1784 0 
Q 1141 0 747 490 
Q 353 981 353 1791 
Q 353 2603 747 3093 
Q 1141 3584 1784 3584 
Q 2172 3584 2450 3431 
Q 2728 3278 2906 2969 
L 2906 3500 
L 3481 3500 
L 3481 434 
z
" transform="scale(0.015625)"/>
      <path id="DejaVuSans-6b" d="M 581 4863 
L 1159 4863 
L 1159 1991 
L 2875 3500 
L 3609 3500 
L 1753 1863 
L 3688 0 
L 2938 0 
L 1159 1709 
L 1159 0 
L 581 0 
L 581 4863 
z
" transform="scale(0.015625)"/>
      <path id="DejaVuSans-Oblique-70" d="M 3175 2156 
Q 3175 2616 2975 2859 
Q 2775 3103 2400 3103 
Q 2144 3103 1911 2972 
Q 1678 2841 1497 2591 
Q 1319 2344 1212 1994 
Q 1106 1644 1106 1300 
Q 1106 863 1306 627 
Q 1506 391 1875 391 
Q 2147 391 2380 519 
Q 2613 647 2778 891 
Q 2956 1147 3065 1494 
Q 3175 1841 3175 2156 
z
M 1394 2969 
Q 1625 3272 1939 3428 
Q 2253 3584 2638 3584 
Q 3175 3584 3472 3232 
Q 3769 2881 3769 2247 
Q 3769 1728 3584 1258 
Q 3400 788 3053 416 
Q 2822 169 2531 39 
Q 2241 -91 1919 -91 
Q 1547 -91 1294 64 
Q 1041 219 916 525 
L 556 -1331 
L -19 -1331 
L 922 3500 
L 1497 3500 
L 1394 2969 
z
" transform="scale(0.015625)"/>
      <path id="DejaVuSans-3d" d="M 678 2906 
L 4684 2906 
L 4684 2381 
L 678 2381 
L 678 2906 
z
M 678 1631 
L 4684 1631 
L 4684 1100 
L 678 1100 
L 678 1631 
z
" transform="scale(0.015625)"/>
     </defs>
     <use xlink:href="#DejaVuSans-4c" transform="translate(0 0.015625)"/>
     <use xlink:href="#DejaVuSans-6f" transform="translate(55.712891 0.015625)"/>
     <use xlink:href="#DejaVuSans-67" transform="translate(116.894531 0.015625)"/>
     <use xlink:href="#DejaVuSans-2d" transform="translate(180.371094 0.015625)"/>
     <use xlink:href="#DejaVuSans-72" transform="translate(216.455078 0.015625)"/>
     <use xlink:href="#DejaVuSans-61" transform="translate(257.568359 0.015625)"/>
     <use xlink:href="#DejaVuSans-6e" transform="translate(318.847656 0.015625)"/>
     <use xlink:href="#DejaVuSans-6b" transform="translate(382.226562 0.015625)"/>
     <use xlink:href="#DejaVuSans-20" transform="translate(440.136719 0.015625)"/>
     <use xlink:href="#DejaVuSans-Oblique-70" transform="translate(471.923828 0.015625)"/>
     <use xlink:href="#DejaVuSans-20" transform="translate(535.400391 0.015625)"/>
     <use xlink:href="#DejaVuSans-3d" transform="translate(567.1875 0.015625)"/>
     <use xlink:href="#DejaVuSans-20" transform="translate(650.976562 0.015625)"/>
     <use xlink:href="#DejaVuSans-30" transform="translate(682.763672 0.015625)"/>
     <use xlink:href="#DejaVuSans-2e" transform="translate(746.386719 0.015625)"/>
     <use xlink:href="#DejaVuSans-30" transform="translate(778.173828 0.015625)"/>
     <use xlink:href="#DejaVuSans-30" transform="translate(841.796875 0.015625)"/>
     <use xlink:href="#DejaVuSans-31" transform="translate(905.419922 0.015625)"/>
    </g>
   </g>
   <g id="text_18">
    <!-- Figure 2. Recurrence-free survival by ETE stratum -->
    <g transform="translate(84.623969 17.229937) scale(0.132 -0.132)">
     <defs>
      <path id="DejaVuSans-46" d="M 628 4666 
L 3309 4666 
L 3309 4134 
L 1259 4134 
L 1259 2759 
L 3109 2759 
L 3109 2228 
L 1259 2228 
L 1259 0 
L 628 0 
L 628 4666 
z
" transform="scale(0.015625)"/>
      <path id="DejaVuSans-62" d="M 3116 1747 
Q 3116 2381 2855 2742 
Q 2594 3103 2138 3103 
Q 1681 3103 1420 2742 
Q 1159 2381 1159 1747 
Q 1159 1113 1420 752 
Q 1681 391 2138 391 
Q 2594 391 2855 752 
Q 3116 1113 3116 1747 
z
M 1159 2969 
Q 1341 3281 1617 3432 
Q 1894 3584 2278 3584 
Q 2916 3584 3314 3078 
Q 3713 2572 3713 1747 
Q 3713 922 3314 415 
Q 2916 -91 2278 -91 
Q 1894 -91 1617 61 
Q 1341 213 1159 525 
L 1159 0 
L 581 0 
L 581 4863 
L 1159 4863 
L 1159 2969 
z
" transform="scale(0.015625)"/>
      <path id="DejaVuSans-45" d="M 628 4666 
L 3578 4666 
L 3578 4134 
L 1259 4134 
L 1259 2753 
L 3481 2753 
L 3481 2222 
L 1259 2222 
L 1259 531 
L 3634 531 
L 3634 0 
L 628 0 
L 628 4666 
z
" transform="scale(0.015625)"/>
      <path id="DejaVuSans-74" d="M 1172 4494 
L 1172 3500 
L 2356 3500 
L 2356 3053 
L 1172 3053 
L 1172 1153 
Q 1172 725 1289 603 
Q 1406 481 1766 481 
L 2356 481 
L 2356 0 
L 1766 0 
Q 1100 0 847 248 
Q 594 497 594 1153 
L 594 3053 
L 172 3053 
L 172 3500 
L 594 3500 
L 594 4494 
L 1172 4494 
z
" transform="scale(0.015625)"/>
     </defs>
     <use xlink:href="#DejaVuSans-46"/>
     <use xlink:href="#DejaVuSans-69" transform="translate(50.269531 0)"/>
     <use xlink:href="#DejaVuSans-67" transform="translate(78.052734 0)"/>
     <use xlink:href="#DejaVuSans-75" transform="translate(141.529297 0)"/>
     <use xlink:href="#DejaVuSans-72" transform="translate(204.908203 0)"/>
     <use xlink:href="#DejaVuSans-65" transform="translate(243.771484 0)"/>
     <use xlink:href="#DejaVuSans-20" transform="translate(305.294922 0)"/>
     <use xlink:href="#DejaVuSans-32" transform="translate(337.082031 0)"/>
     <use xlink:href="#DejaVuSans-2e" transform="translate(400.705078 0)"/>
     <use xlink:href="#DejaVuSans-20" transform="translate(432.492188 0)"/>
     <use xlink:href="#DejaVuSans-52" transform="translate(464.279297 0)"/>
     <use xlink:href="#DejaVuSans-65" transform="translate(529.261719 0)"/>
     <use xlink:href="#DejaVuSans-63" transform="translate(590.785156 0)"/>
     <use xlink:href="#DejaVuSans-75" transform="translate(645.765625 0)"/>
     <use xlink:href="#DejaVuSans-72" transform="translate(709.144531 0)"/>
     <use xlink:href="#DejaVuSans-72" transform="translate(748.507812 0)"/>
     <use xlink:href="#DejaVuSans-65" transform="translate(787.371094 0)"/>
     <use xlink:href="#DejaVuSans-6e" transform="translate(848.894531 0)"/>
     <use xlink:href="#DejaVuSans-63" transform="translate(912.273438 0)"/>
     <use xlink:href="#DejaVuSans-65" transform="translate(967.253906 0)"/>
     <use xlink:href="#DejaVuSans-2d" transform="translate(1028.777344 0)"/>
     <use xlink:href="#DejaVuSans-66" transform="translate(1064.861328 0)"/>
     <use xlink:href="#DejaVuSans-72" transform="translate(1100.066406 0)"/>
     <use xlink:href="#DejaVuSans-65" transform="translate(1138.929688 0)"/>
     <use xlink:href="#DejaVuSans-65" transform="translate(1200.453125 0)"/>
     <use xlink:href="#DejaVuSans-20" transform="translate(1261.976562 0)"/>
     <use xlink:href="#DejaVuSans-73" transform="translate(1293.763672 0)"/>
     <use xlink:href="#DejaVuSans-75" transform="translate(1345.863281 0)"/>
     <use xlink:href="#DejaVuSans-72" transform="translate(1409.242188 0)"/>
     <use xlink:href="#DejaVuSans-76" transform="translate(1450.355469 0)"/>
     <use xlink:href="#DejaVuSans-69" transform="translate(1509.535156 0)"/>
     <use xlink:href="#DejaVuSans-76" transform="translate(1537.318359 0)"/>
     <use xlink:href="#DejaVuSans-61" transform="translate(1596.498047 0)"/>
     <use xlink:href="#DejaVuSans-6c" transform="translate(1657.777344 0)"/>
     <use xlink:href="#DejaVuSans-20" transform="translate(1685.560547 0)"/>
     <use xlink:href="#DejaVuSans-62" transform="translate(1717.347656 0)"/>
     <use xlink:href="#DejaVuSans-79" transform="translate(1780.824219 0)"/>
     <use xlink:href="#DejaVuSans-20" transform="translate(1840.003906 0)"/>
     <use xlink:href="#DejaVuSans-45" transform="translate(1871.791016 0)"/>
     <use xlink:href="#DejaVuSans-54" transform="translate(1934.974609 0)"/>
     <use xlink:href="#DejaVuSans-45" transform="translate(1996.058594 0)"/>
     <use xlink:href="#DejaVuSans-20" transform="translate(2059.242188 0)"/>
     <use xlink:href="#DejaVuSans-73" transform="translate(2091.029297 0)"/>
     <use xlink:href="#DejaVuSans-74" transform="translate(2143.128906 0)"/>
     <use xlink:href="#DejaVuSans-72" transform="translate(2182.337891 0)"/>
     <use xlink:href="#DejaVuSans-61" transform="translate(2223.451172 0)"/>
     <use xlink:href="#DejaVuSans-74" transform="translate(2284.730469 0)"/>
     <use xlink:href="#DejaVuSans-75" transform="translate(2323.939453 0)"/>
     <use xlink:href="#DejaVuSans-6d" transform="translate(2387.318359 0)"/>
    </g>
   </g>
   <g id="legend_1">
    <g id="patch_7">
     <path d="M 52.639375 281.600439 
L 201.834063 281.600439 
Q 203.634063 281.600439 203.634063 279.800439 
L 203.634063 241.069501 
Q 203.634063 239.269501 201.834063 239.269501 
L 52.639375 239.269501 
Q 50.839375 239.269501 50.839375 241.069501 
L 50.839375 279.800439 
Q 50.839375 281.600439 52.639375 281.600439 
z
" style="fill: #ffffff; opacity: 0.95; stroke: #cccccc; stroke-linejoin: miter"/>
    </g>
    <g id="line2d_32">
     <path d="M 54.439375 246.558095 
L 63.439375 246.558095 
L 63.439375 246.558095 
L 72.439375 246.558095 
L 72.439375 246.558095 
" style="fill: none; stroke: #999999; stroke-width: 2; stroke-linecap: square"/>
    </g>
    <g id="text_19">
     <!-- No / negative ETE (n=106) -->
     <g transform="translate(79.639375 249.708095) scale(0.09 -0.09)">
      <defs>
       <path id="DejaVuSans-4e" d="M 628 4666 
L 1478 4666 
L 3547 763 
L 3547 4666 
L 4159 4666 
L 4159 0 
L 3309 0 
L 1241 3903 
L 1241 0 
L 628 0 
L 628 4666 
z
" transform="scale(0.015625)"/>
       <path id="DejaVuSans-2f" d="M 1625 4666 
L 2156 4666 
L 531 -594 
L 0 -594 
L 1625 4666 
z
" transform="scale(0.015625)"/>
      </defs>
      <use xlink:href="#DejaVuSans-4e"/>
      <use xlink:href="#DejaVuSans-6f" transform="translate(74.804688 0)"/>
      <use xlink:href="#DejaVuSans-20" transform="translate(135.986328 0)"/>
      <use xlink:href="#DejaVuSans-2f" transform="translate(167.773438 0)"/>
      <use xlink:href="#DejaVuSans-20" transform="translate(201.464844 0)"/>
      <use xlink:href="#DejaVuSans-6e" transform="translate(233.251953 0)"/>
      <use xlink:href="#DejaVuSans-65" transform="translate(296.630859 0)"/>
      <use xlink:href="#DejaVuSans-67" transform="translate(358.154297 0)"/>
      <use xlink:href="#DejaVuSans-61" transform="translate(421.630859 0)"/>
      <use xlink:href="#DejaVuSans-74" transform="translate(482.910156 0)"/>
      <use xlink:href="#DejaVuSans-69" transform="translate(522.119141 0)"/>
      <use xlink:href="#DejaVuSans-76" transform="translate(549.902344 0)"/>
      <use xlink:href="#DejaVuSans-65" transform="translate(609.082031 0)"/>
      <use xlink:href="#DejaVuSans-20" transform="translate(670.605469 0)"/>
      <use xlink:href="#DejaVuSans-45" transform="translate(702.392578 0)"/>
      <use xlink:href="#DejaVuSans-54" transform="translate(765.576172 0)"/>
      <use xlink:href="#DejaVuSans-45" transform="translate(826.660156 0)"/>
      <use xlink:href="#DejaVuSans-20" transform="translate(889.84375 0)"/>
      <use xlink:href="#DejaVuSans-28" transform="translate(921.630859 0)"/>
      <use xlink:href="#DejaVuSans-6e" transform="translate(960.644531 0)"/>
      <use xlink:href="#DejaVuSans-3d" transform="translate(1024.023438 0)"/>
      <use xlink:href="#DejaVuSans-31" transform="translate(1107.8125 0)"/>
      <use xlink:href="#DejaVuSans-30" transform="translate(1171.435547 0)"/>
      <use xlink:href="#DejaVuSans-36" transform="translate(1235.058594 0)"/>
      <use xlink:href="#DejaVuSans-29" transform="translate(1298.681641 0)"/>
     </g>
    </g>
    <g id="line2d_33">
     <path d="M 54.439375 259.768407 
L 63.439375 259.768407 
L 63.439375 259.768407 
L 72.439375 259.768407 
L 72.439375 259.768407 
" style="fill: none; stroke: #1f77b4; stroke-width: 2; stroke-linecap: square"/>
    </g>
    <g id="text_20">
     <!-- Microscopic ETE (n=1621) -->
     <g transform="translate(79.639375 262.918407) scale(0.09 -0.09)">
      <defs>
       <path id="DejaVuSans-4d" d="M 628 4666 
L 1569 4666 
L 2759 1491 
L 3956 4666 
L 4897 4666 
L 4897 0 
L 4281 0 
L 4281 4097 
L 3078 897 
L 2444 897 
L 1241 4097 
L 1241 0 
L 628 0 
L 628 4666 
z
" transform="scale(0.015625)"/>
       <path id="DejaVuSans-70" d="M 1159 525 
L 1159 -1331 
L 581 -1331 
L 581 3500 
L 1159 3500 
L 1159 2969 
Q 1341 3281 1617 3432 
Q 1894 3584 2278 3584 
Q 2916 3584 3314 3078 
Q 3713 2572 3713 1747 
Q 3713 922 3314 415 
Q 2916 -91 2278 -91 
Q 1894 -91 1617 61 
Q 1341 213 1159 525 
z
M 3116 1747 
Q 3116 2381 2855 2742 
Q 2594 3103 2138 3103 
Q 1681 3103 1420 2742 
Q 1159 2381 1159 1747 
Q 1159 1113 1420 752 
Q 1681 391 2138 391 
Q 2594 391 2855 752 
Q 3116 1113 3116 1747 
z
" transform="scale(0.015625)"/>
      </defs>
      <use xlink:href="#DejaVuSans-4d"/>
      <use xlink:href="#DejaVuSans-69" transform="translate(86.279297 0)"/>
      <use xlink:href="#DejaVuSans-63" transform="translate(114.0625 0)"/>
      <use xlink:href="#DejaVuSans-72" transform="translate(169.042969 0)"/>
      <use xlink:href="#DejaVuSans-6f" transform="translate(207.90625 0)"/>
      <use xlink:href="#DejaVuSans-73" transform="translate(269.087891 0)"/>
      <use xlink:href="#DejaVuSans-63" transform="translate(321.1875 0)"/>
      <use xlink:href="#DejaVuSans-6f" transform="translate(376.167969 0)"/>
      <use xlink:href="#DejaVuSans-70" transform="translate(437.349609 0)"/>
      <use xlink:href="#DejaVuSans-69" transform="translate(500.826172 0)"/>
      <use xlink:href="#DejaVuSans-63" transform="translate(528.609375 0)"/>
      <use xlink:href="#DejaVuSans-20" transform="translate(583.589844 0)"/>
      <use xlink:href="#DejaVuSans-45" transform="translate(615.376953 0)"/>
      <use xlink:href="#DejaVuSans-54" transform="translate(678.560547 0)"/>
      <use xlink:href="#DejaVuSans-45" transform="translate(739.644531 0)"/>
      <use xlink:href="#DejaVuSans-20" transform="translate(802.828125 0)"/>
      <use xlink:href="#DejaVuSans-28" transform="translate(834.615234 0)"/>
      <use xlink:href="#DejaVuSans-6e" transform="translate(873.628906 0)"/>
      <use xlink:href="#DejaVuSans-3d" transform="translate(937.007812 0)"/>
      <use xlink:href="#DejaVuSans-31" transform="translate(1020.796875 0)"/>
      <use xlink:href="#DejaVuSans-36" transform="translate(1084.419922 0)"/>
      <use xlink:href="#DejaVuSans-32" transform="translate(1148.042969 0)"/>
      <use xlink:href="#DejaVuSans-31" transform="translate(1211.666016 0)"/>
      <use xlink:href="#DejaVuSans-29" transform="translate(1275.289062 0)"/>
     </g>
    </g>
    <g id="line2d_34">
     <path d="M 54.439375 272.97872 
L 63.439375 272.97872 
L 63.439375 272.97872 
L 72.439375 272.97872 
L 72.439375 272.97872 
" style="fill: none; stroke: #d62728; stroke-width: 2; stroke-linecap: square"/>
    </g>
    <g id="text_21">
     <!-- Gross ETE (n=979) -->
     <g transform="translate(79.639375 276.12872) scale(0.09 -0.09)">
      <defs>
       <path id="DejaVuSans-47" d="M 3809 666 
L 3809 1919 
L 2778 1919 
L 2778 2438 
L 4434 2438 
L 4434 434 
Q 4069 175 3628 42 
Q 3188 -91 2688 -91 
Q 1594 -91 976 548 
Q 359 1188 359 2328 
Q 359 3472 976 4111 
Q 1594 4750 2688 4750 
Q 3144 4750 3555 4637 
Q 3966 4525 4313 4306 
L 4313 3634 
Q 3963 3931 3569 4081 
Q 3175 4231 2741 4231 
Q 1884 4231 1454 3753 
Q 1025 3275 1025 2328 
Q 1025 1384 1454 906 
Q 1884 428 2741 428 
Q 3075 428 3337 486 
Q 3600 544 3809 666 
z
" transform="scale(0.015625)"/>
      </defs>
      <use xlink:href="#DejaVuSans-47"/>
      <use xlink:href="#DejaVuSans-72" transform="translate(77.490234 0)"/>
      <use xlink:href="#DejaVuSans-6f" transform="translate(116.353516 0)"/>
      <use xlink:href="#DejaVuSans-73" transform="translate(177.535156 0)"/>
      <use xlink:href="#DejaVuSans-73" transform="translate(229.634766 0)"/>
      <use xlink:href="#DejaVuSans-20" transform="translate(281.734375 0)"/>
      <use xlink:href="#DejaVuSans-45" transform="translate(313.521484 0)"/>
      <use xlink:href="#DejaVuSans-54" transform="translate(376.705078 0)"/>
      <use xlink:href="#DejaVuSans-45" transform="translate(437.789062 0)"/>
      <use xlink:href="#DejaVuSans-20" transform="translate(500.972656 0)"/>
      <use xlink:href="#DejaVuSans-28" transform="translate(532.759766 0)"/>
      <use xlink:href="#DejaVuSans-6e" transform="translate(571.773438 0)"/>
      <use xlink:href="#DejaVuSans-3d" transform="translate(635.152344 0)"/>
      <use xlink:href="#DejaVuSans-39" transform="translate(718.941406 0)"/>
      <use xlink:href="#DejaVuSans-37" transform="translate(782.564453 0)"/>
      <use xlink:href="#DejaVuSans-39" transform="translate(846.1875 0)"/>
      <use xlink:href="#DejaVuSans-29" transform="translate(909.810547 0)"/>
     </g>
    </g>
   </g>
  </g>
  <g id="axes_2">
   <g id="table_1">
    <g id="patch_8">
     <path d="M 36.225625 319.433413 
L 121.181125 319.433413 
L 121.181125 300.833413 
L 36.225625 300.833413 
z
" style="fill: #ffffff; stroke: #000000; stroke-linejoin: miter"/>
    </g>
    <g id="text_22">
     <!-- Stratum -->
     <g transform="translate(60.475562 312.616851) scale(0.09 -0.09)">
      <defs>
       <path id="DejaVuSans-53" d="M 3425 4513 
L 3425 3897 
Q 3066 4069 2747 4153 
Q 2428 4238 2131 4238 
Q 1616 4238 1336 4038 
Q 1056 3838 1056 3469 
Q 1056 3159 1242 3001 
Q 1428 2844 1947 2747 
L 2328 2669 
Q 3034 2534 3370 2195 
Q 3706 1856 3706 1288 
Q 3706 609 3251 259 
Q 2797 -91 1919 -91 
Q 1588 -91 1214 -16 
Q 841 59 441 206 
L 441 856 
Q 825 641 1194 531 
Q 1563 422 1919 422 
Q 2459 422 2753 634 
Q 3047 847 3047 1241 
Q 3047 1584 2836 1778 
Q 2625 1972 2144 2069 
L 1759 2144 
Q 1053 2284 737 2584 
Q 422 2884 422 3419 
Q 422 4038 858 4394 
Q 1294 4750 2059 4750 
Q 2388 4750 2728 4690 
Q 3069 4631 3425 4513 
z
" transform="scale(0.015625)"/>
      </defs>
      <use xlink:href="#DejaVuSans-53"/>
      <use xlink:href="#DejaVuSans-74" transform="translate(63.476562 0)"/>
      <use xlink:href="#DejaVuSans-72" transform="translate(102.685547 0)"/>
      <use xlink:href="#DejaVuSans-61" transform="translate(143.798828 0)"/>
      <use xlink:href="#DejaVuSans-74" transform="translate(205.078125 0)"/>
      <use xlink:href="#DejaVuSans-75" transform="translate(244.287109 0)"/>
      <use xlink:href="#DejaVuSans-6d" transform="translate(307.666016 0)"/>
     </g>
    </g>
    <g id="patch_9">
     <path d="M 121.181125 319.433413 
L 206.136625 319.433413 
L 206.136625 300.833413 
L 121.181125 300.833413 
z
" style="fill: #ffffff; stroke: #000000; stroke-linejoin: miter"/>
    </g>
    <g id="text_23">
     <!-- n at risk (0 y) -->
     <g transform="translate(133.476531 312.616851) scale(0.09 -0.09)">
      <use xlink:href="#DejaVuSans-6e"/>
      <use xlink:href="#DejaVuSans-20" transform="translate(63.378906 0)"/>
      <use xlink:href="#DejaVuSans-61" transform="translate(95.166016 0)"/>
      <use xlink:href="#DejaVuSans-74" transform="translate(156.445312 0)"/>
      <use xlink:href="#DejaVuSans-20" transform="translate(195.654297 0)"/>
      <use xlink:href="#DejaVuSans-72" transform="translate(227.441406 0)"/>
      <use xlink:href="#DejaVuSans-69" transform="translate(268.554688 0)"/>
      <use xlink:href="#DejaVuSans-73" transform="translate(296.337891 0)"/>
      <use xlink:href="#DejaVuSans-6b" transform="translate(348.4375 0)"/>
      <use xlink:href="#DejaVuSans-20" transform="translate(406.347656 0)"/>
      <use xlink:href="#DejaVuSans-28" transform="translate(438.134766 0)"/>
      <use xlink:href="#DejaVuSans-30" transform="translate(477.148438 0)"/>
      <use xlink:href="#DejaVuSans-20" transform="translate(540.771484 0)"/>
      <use xlink:href="#DejaVuSans-79" transform="translate(572.558594 0)"/>
      <use xlink:href="#DejaVuSans-29" transform="translate(631.738281 0)"/>
     </g>
    </g>
    <g id="patch_10">
     <path d="M 206.136625 319.433413 
L 291.092125 319.433413 
L 291.092125 300.833413 
L 206.136625 300.833413 
z
" style="fill: #ffffff; stroke: #000000; stroke-linejoin: miter"/>
    </g>
    <g id="text_24">
     <!-- n at risk (2 y) -->
     <g transform="translate(218.432031 312.616851) scale(0.09 -0.09)">
      <use xlink:href="#DejaVuSans-6e"/>
      <use xlink:href="#DejaVuSans-20" transform="translate(63.378906 0)"/>
      <use xlink:href="#DejaVuSans-61" transform="translate(95.166016 0)"/>
      <use xlink:href="#DejaVuSans-74" transform="translate(156.445312 0)"/>
      <use xlink:href="#DejaVuSans-20" transform="translate(195.654297 0)"/>
      <use xlink:href="#DejaVuSans-72" transform="translate(227.441406 0)"/>
      <use xlink:href="#DejaVuSans-69" transform="translate(268.554688 0)"/>
      <use xlink:href="#DejaVuSans-73" transform="translate(296.337891 0)"/>
      <use xlink:href="#DejaVuSans-6b" transform="translate(348.4375 0)"/>
      <use xlink:href="#DejaVuSans-20" transform="translate(406.347656 0)"/>
      <use xlink:href="#DejaVuSans-28" transform="translate(438.134766 0)"/>
      <use xlink:href="#DejaVuSans-32" transform="translate(477.148438 0)"/>
      <use xlink:href="#DejaVuSans-20" transform="translate(540.771484 0)"/>
      <use xlink:href="#DejaVuSans-79" transform="translate(572.558594 0)"/>
      <use xlink:href="#DejaVuSans-29" transform="translate(631.738281 0)"/>
     </g>
    </g>
    <g id="patch_11">
     <path d="M 291.092125 319.433413 
L 376.047625 319.433413 
L 376.047625 300.833413 
L 291.092125 300.833413 
z
" style="fill: #ffffff; stroke: #000000; stroke-linejoin: miter"/>
    </g>
    <g id="text_25">
     <!-- n at risk (5 y) -->
     <g transform="translate(303.387531 312.616851) scale(0.09 -0.09)">
      <use xlink:href="#DejaVuSans-6e"/>
      <use xlink:href="#DejaVuSans-20" transform="translate(63.378906 0)"/>
      <use xlink:href="#DejaVuSans-61" transform="translate(95.166016 0)"/>
      <use xlink:href="#DejaVuSans-74" transform="translate(156.445312 0)"/>
      <use xlink:href="#DejaVuSans-20" transform="translate(195.654297 0)"/>
      <use xlink:href="#DejaVuSans-72" transform="translate(227.441406 0)"/>
      <use xlink:href="#DejaVuSans-69" transform="translate(268.554688 0)"/>
      <use xlink:href="#DejaVuSans-73" transform="translate(296.337891 0)"/>
      <use xlink:href="#DejaVuSans-6b" transform="translate(348.4375 0)"/>
      <use xlink:href="#DejaVuSans-20" transform="translate(406.347656 0)"/>
      <use xlink:href="#DejaVuSans-28" transform="translate(438.134766 0)"/>
      <use xlink:href="#DejaVuSans-35" transform="translate(477.148438 0)"/>
      <use xlink:href="#DejaVuSans-20" transform="translate(540.771484 0)"/>
      <use xlink:href="#DejaVuSans-79" transform="translate(572.558594 0)"/>
      <use xlink:href="#DejaVuSans-29" transform="translate(631.738281 0)"/>
     </g>
    </g>
    <g id="patch_12">
     <path d="M 376.047625 319.433413 
L 461.003125 319.433413 
L 461.003125 300.833413 
L 376.047625 300.833413 
z
" style="fill: #ffffff; stroke: #000000; stroke-linejoin: miter"/>
    </g>
    <g id="text_26">
     <!-- n at risk (10 y) -->
     <g transform="translate(385.479906 312.616851) scale(0.09 -0.09)">
      <use xlink:href="#DejaVuSans-6e"/>
      <use xlink:href="#DejaVuSans-20" transform="translate(63.378906 0)"/>
      <use xlink:href="#DejaVuSans-61" transform="translate(95.166016 0)"/>
      <use xlink:href="#DejaVuSans-74" transform="translate(156.445312 0)"/>
      <use xlink:href="#DejaVuSans-20" transform="translate(195.654297 0)"/>
      <use xlink:href="#DejaVuSans-72" transform="translate(227.441406 0)"/>
      <use xlink:href="#DejaVuSans-69" transform="translate(268.554688 0)"/>
      <use xlink:href="#DejaVuSans-73" transform="translate(296.337891 0)"/>
      <use xlink:href="#DejaVuSans-6b" transform="translate(348.4375 0)"/>
      <use xlink:href="#DejaVuSans-20" transform="translate(406.347656 0)"/>
      <use xlink:href="#DejaVuSans-28" transform="translate(438.134766 0)"/>
      <use xlink:href="#DejaVuSans-31" transform="translate(477.148438 0)"/>
      <use xlink:href="#DejaVuSans-30" transform="translate(540.771484 0)"/>
      <use xlink:href="#DejaVuSans-20" transform="translate(604.394531 0)"/>
      <use xlink:href="#DejaVuSans-79" transform="translate(636.181641 0)"/>
      <use xlink:href="#DejaVuSans-29" transform="translate(695.361328 0)"/>
     </g>
    </g>
    <g id="patch_13">
     <path d="M 36.225625 338.033413 
L 121.181125 338.033413 
L 121.181125 319.433413 
L 36.225625 319.433413 
z
" style="fill: #ffffff; stroke: #000000; stroke-linejoin: miter"/>
    </g>
    <g id="text_27">
     <!-- No / negative ETE -->
     <g transform="translate(38.659703 331.216851) scale(0.09 -0.09)">
      <use xlink:href="#DejaVuSans-4e"/>
      <use xlink:href="#DejaVuSans-6f" transform="translate(74.804688 0)"/>
      <use xlink:href="#DejaVuSans-20" transform="translate(135.986328 0)"/>
      <use xlink:href="#DejaVuSans-2f" transform="translate(167.773438 0)"/>
      <use xlink:href="#DejaVuSans-20" transform="translate(201.464844 0)"/>
      <use xlink:href="#DejaVuSans-6e" transform="translate(233.251953 0)"/>
      <use xlink:href="#DejaVuSans-65" transform="translate(296.630859 0)"/>
      <use xlink:href="#DejaVuSans-67" transform="translate(358.154297 0)"/>
      <use xlink:href="#DejaVuSans-61" transform="translate(421.630859 0)"/>
      <use xlink:href="#DejaVuSans-74" transform="translate(482.910156 0)"/>
      <use xlink:href="#DejaVuSans-69" transform="translate(522.119141 0)"/>
      <use xlink:href="#DejaVuSans-76" transform="translate(549.902344 0)"/>
      <use xlink:href="#DejaVuSans-65" transform="translate(609.082031 0)"/>
      <use xlink:href="#DejaVuSans-20" transform="translate(670.605469 0)"/>
      <use xlink:href="#DejaVuSans-45" transform="translate(702.392578 0)"/>
      <use xlink:href="#DejaVuSans-54" transform="translate(765.576172 0)"/>
      <use xlink:href="#DejaVuSans-45" transform="translate(826.660156 0)"/>
     </g>
    </g>
    <g id="patch_14">
     <path d="M 121.181125 338.033413 
L 206.136625 338.033413 
L 206.136625 319.433413 
L 121.181125 319.433413 
z
" style="fill: #ffffff; stroke: #000000; stroke-linejoin: miter"/>
    </g>
    <g id="text_28">
     <!-- 106 -->
     <g transform="translate(155.0695 331.216851) scale(0.09 -0.09)">
      <use xlink:href="#DejaVuSans-31"/>
      <use xlink:href="#DejaVuSans-30" transform="translate(63.623047 0)"/>
      <use xlink:href="#DejaVuSans-36" transform="translate(127.246094 0)"/>
     </g>
    </g>
    <g id="patch_15">
     <path d="M 206.136625 338.033413 
L 291.092125 338.033413 
L 291.092125 319.433413 
L 206.136625 319.433413 
z
" style="fill: #ffffff; stroke: #000000; stroke-linejoin: miter"/>
    </g>
    <g id="text_29">
     <!-- 57 -->
     <g transform="translate(242.888125 331.216851) scale(0.09 -0.09)">
      <use xlink:href="#DejaVuSans-35"/>
      <use xlink:href="#DejaVuSans-37" transform="translate(63.623047 0)"/>
     </g>
    </g>
    <g id="patch_16">
     <path d="M 291.092125 338.033413 
L 376.047625 338.033413 
L 376.047625 319.433413 
L 291.092125 319.433413 
z
" style="fill: #ffffff; stroke: #000000; stroke-linejoin: miter"/>
    </g>
    <g id="text_30">
     <!-- 35 -->
     <g transform="translate(327.843625 331.216851) scale(0.09 -0.09)">
      <defs>
       <path id="DejaVuSans-33" d="M 2597 2516 
Q 3050 2419 3304 2112 
Q 3559 1806 3559 1356 
Q 3559 666 3084 287 
Q 2609 -91 1734 -91 
Q 1441 -91 1130 -33 
Q 819 25 488 141 
L 488 750 
Q 750 597 1062 519 
Q 1375 441 1716 441 
Q 2309 441 2620 675 
Q 2931 909 2931 1356 
Q 2931 1769 2642 2001 
Q 2353 2234 1838 2234 
L 1294 2234 
L 1294 2753 
L 1863 2753 
Q 2328 2753 2575 2939 
Q 2822 3125 2822 3475 
Q 2822 3834 2567 4026 
Q 2313 4219 1838 4219 
Q 1578 4219 1281 4162 
Q 984 4106 628 3988 
L 628 4550 
Q 988 4650 1302 4700 
Q 1616 4750 1894 4750 
Q 2613 4750 3031 4423 
Q 3450 4097 3450 3541 
Q 3450 3153 3228 2886 
Q 3006 2619 2597 2516 
z
" transform="scale(0.015625)"/>
      </defs>
      <use xlink:href="#DejaVuSans-33"/>
      <use xlink:href="#DejaVuSans-35" transform="translate(63.623047 0)"/>
     </g>
    </g>
    <g id="patch_17">
     <path d="M 376.047625 338.033413 
L 461.003125 338.033413 
L 461.003125 319.433413 
L 376.047625 319.433413 
z
" style="fill: #ffffff; stroke: #000000; stroke-linejoin: miter"/>
    </g>
    <g id="text_31">
     <!-- 18 -->
     <g transform="translate(412.799125 331.216851) scale(0.09 -0.09)">
      <use xlink:href="#DejaVuSans-31"/>
      <use xlink:href="#DejaVuSans-38" transform="translate(63.623047 0)"/>
     </g>
    </g>
    <g id="patch_18">
     <path d="M 36.225625 356.633413 
L 121.181125 356.633413 
L 121.181125 338.033413 
L 36.225625 338.033413 
z
" style="fill: #ffffff; stroke: #000000; stroke-linejoin: miter"/>
    </g>
    <g id="text_32">
     <!-- Microscopic ETE -->
     <g transform="translate(42.575406 349.816851) scale(0.09 -0.09)">
      <use xlink:href="#DejaVuSans-4d"/>
      <use xlink:href="#DejaVuSans-69" transform="translate(86.279297 0)"/>
      <use xlink:href="#DejaVuSans-63" transform="translate(114.0625 0)"/>
      <use xlink:href="#DejaVuSans-72" transform="translate(169.042969 0)"/>
      <use xlink:href="#DejaVuSans-6f" transform="translate(207.90625 0)"/>
      <use xlink:href="#DejaVuSans-73" transform="translate(269.087891 0)"/>
      <use xlink:href="#DejaVuSans-63" transform="translate(321.1875 0)"/>
      <use xlink:href="#DejaVuSans-6f" transform="translate(376.167969 0)"/>
      <use xlink:href="#DejaVuSans-70" transform="translate(437.349609 0)"/>
      <use xlink:href="#DejaVuSans-69" transform="translate(500.826172 0)"/>
      <use xlink:href="#DejaVuSans-63" transform="translate(528.609375 0)"/>
      <use xlink:href="#DejaVuSans-20" transform="translate(583.589844 0)"/>
      <use xlink:href="#DejaVuSans-45" transform="translate(615.376953 0)"/>
      <use xlink:href="#DejaVuSans-54" transform="translate(678.560547 0)"/>
      <use xlink:href="#DejaVuSans-45" transform="translate(739.644531 0)"/>
     </g>
    </g>
    <g id="patch_19">
     <path d="M 121.181125 356.633413 
L 206.136625 356.633413 
L 206.136625 338.033413 
L 121.181125 338.033413 
z
" style="fill: #ffffff; stroke: #000000; stroke-linejoin: miter"/>
    </g>
    <g id="text_33">
     <!-- 1621 -->
     <g transform="translate(152.206375 349.816851) scale(0.09 -0.09)">
      <use xlink:href="#DejaVuSans-31"/>
      <use xlink:href="#DejaVuSans-36" transform="translate(63.623047 0)"/>
      <use xlink:href="#DejaVuSans-32" transform="translate(127.246094 0)"/>
      <use xlink:href="#DejaVuSans-31" transform="translate(190.869141 0)"/>
     </g>
    </g>
    <g id="patch_20">
     <path d="M 206.136625 356.633413 
L 291.092125 356.633413 
L 291.092125 338.033413 
L 206.136625 338.033413 
z
" style="fill: #ffffff; stroke: #000000; stroke-linejoin: miter"/>
    </g>
    <g id="text_34">
     <!-- 861 -->
     <g transform="translate(240.025 349.816851) scale(0.09 -0.09)">
      <use xlink:href="#DejaVuSans-38"/>
      <use xlink:href="#DejaVuSans-36" transform="translate(63.623047 0)"/>
      <use xlink:href="#DejaVuSans-31" transform="translate(127.246094 0)"/>
     </g>
    </g>
    <g id="patch_21">
     <path d="M 291.092125 356.633413 
L 376.047625 356.633413 
L 376.047625 338.033413 
L 291.092125 338.033413 
z
" style="fill: #ffffff; stroke: #000000; stroke-linejoin: miter"/>
    </g>
    <g id="text_35">
     <!-- 515 -->
     <g transform="translate(324.9805 349.816851) scale(0.09 -0.09)">
      <use xlink:href="#DejaVuSans-35"/>
      <use xlink:href="#DejaVuSans-31" transform="translate(63.623047 0)"/>
      <use xlink:href="#DejaVuSans-35" transform="translate(127.246094 0)"/>
     </g>
    </g>
    <g id="patch_22">
     <path d="M 376.047625 356.633413 
L 461.003125 356.633413 
L 461.003125 338.033413 
L 376.047625 338.033413 
z
" style="fill: #ffffff; stroke: #000000; stroke-linejoin: miter"/>
    </g>
    <g id="text_36">
     <!-- 269 -->
     <g transform="translate(409.936 349.816851) scale(0.09 -0.09)">
      <use xlink:href="#DejaVuSans-32"/>
      <use xlink:href="#DejaVuSans-36" transform="translate(63.623047 0)"/>
      <use xlink:href="#DejaVuSans-39" transform="translate(127.246094 0)"/>
     </g>
    </g>
    <g id="patch_23">
     <path d="M 36.225625 375.233413 
L 121.181125 375.233413 
L 121.181125 356.633413 
L 36.225625 356.633413 
z
" style="fill: #ffffff; stroke: #000000; stroke-linejoin: miter"/>
    </g>
    <g id="text_37">
     <!-- Gross ETE -->
     <g transform="translate(56.160484 368.416851) scale(0.09 -0.09)">
      <use xlink:href="#DejaVuSans-47"/>
      <use xlink:href="#DejaVuSans-72" transform="translate(77.490234 0)"/>
      <use xlink:href="#DejaVuSans-6f" transform="translate(116.353516 0)"/>
      <use xlink:href="#DejaVuSans-73" transform="translate(177.535156 0)"/>
      <use xlink:href="#DejaVuSans-73" transform="translate(229.634766 0)"/>
      <use xlink:href="#DejaVuSans-20" transform="translate(281.734375 0)"/>
      <use xlink:href="#DejaVuSans-45" transform="translate(313.521484 0)"/>
      <use xlink:href="#DejaVuSans-54" transform="translate(376.705078 0)"/>
      <use xlink:href="#DejaVuSans-45" transform="translate(437.789062 0)"/>
     </g>
    </g>
    <g id="patch_24">
     <path d="M 121.181125 375.233413 
L 206.136625 375.233413 
L 206.136625 356.633413 
L 121.181125 356.633413 
z
" style="fill: #ffffff; stroke: #000000; stroke-linejoin: miter"/>
    </g>
    <g id="text_38">
     <!-- 979 -->
     <g transform="translate(155.0695 368.416851) scale(0.09 -0.09)">
      <use xlink:href="#DejaVuSans-39"/>
      <use xlink:href="#DejaVuSans-37" transform="translate(63.623047 0)"/>
      <use xlink:href="#DejaVuSans-39" transform="translate(127.246094 0)"/>
     </g>
    </g>
    <g id="patch_25">
     <path d="M 206.136625 375.233413 
L 291.092125 375.233413 
L 291.092125 356.633413 
L 206.136625 356.633413 
z
" style="fill: #ffffff; stroke: #000000; stroke-linejoin: miter"/>
    </g>
    <g id="text_39">
     <!-- 527 -->
     <g transform="translate(240.025 368.416851) scale(0.09 -0.09)">
      <use xlink:href="#DejaVuSans-35"/>
      <use xlink:href="#DejaVuSans-32" transform="translate(63.623047 0)"/>
      <use xlink:href="#DejaVuSans-37" transform="translate(127.246094 0)"/>
     </g>
    </g>
    <g id="patch_26">
     <path d="M 291.092125 375.233413 
L 376.047625 375.233413 
L 376.047625 356.633413 
L 291.092125 356.633413 
z
" style="fill: #ffffff; stroke: #000000; stroke-linejoin: miter"/>
    </g>
    <g id="text_40">
     <!-- 304 -->
     <g transform="translate(324.9805 368.416851) scale(0.09 -0.09)">
      <use xlink:href="#DejaVuSans-33"/>
      <use xlink:href="#DejaVuSans-30" transform="translate(63.623047 0)"/>
      <use xlink:href="#DejaVuSans-34" transform="translate(127.246094 0)"/>
     </g>
    </g>
    <g id="patch_27">
     <path d="M 376.047625 375.233413 
L 461.003125 375.233413 
L 461.003125 356.633413 
L 376.047625 356.633413 
z
" style="fill: #ffffff; stroke: #000000; stroke-linejoin: miter"/>
    </g>
    <g id="text_41">
     <!-- 67 -->
     <g transform="translate(412.799125 368.416851) scale(0.09 -0.09)">
      <use xlink:href="#DejaVuSans-36"/>
      <use xlink:href="#DejaVuSans-37" transform="translate(63.623047 0)"/>
     </g>
    </g>
   </g>
  </g>
 </g>
 <defs>
  <clipPath id="p50e16615ad">
   <rect x="46.339375" y="23.229937" width="404.55" height="262.870501"/>
  </clipPath>
 </defs>
</svg>
