<?xml version="1.0" encoding="utf-8" standalone="no"?>
<!DOCTYPE svg PUBLIC "-//W3C//DTD SVG 1.1//EN"
  "http://www.w3.org/Graphics/SVG/1.1/DTD/svg11.dtd">
<svg xmlns:xlink="http://www.w3.org/1999/xlink" width="349.2pt" height="477.797969pt" viewBox="0 0 349.2 477.797969" xmlns="http://www.w3.org/2000/svg" version="1.1">
 <metadata>
  <rdf:RDF xmlns:dc="http://purl.org/dc/elements/1.1/" xmlns:cc="http://creativecommons.org/ns#" xmlns:rdf="http://www.w3.org/1999/02/22-rdf-syntax-ns#">
   <cc:Work>
    <dc:type rdf:resource="http://purl.org/dc/dcmitype/StillImage"/>
    <dc:date>2026-03-13T03:20:59.636771</dc:date>
    <dc:format>image/svg+xml</dc:format>
    <dc:creator>
     <cc:Agent>
      <dc:title>Matplotlib v3.10.8, https://matplotlib.org/</dc:title>
     </cc:Agent>
    </dc:creator>
   </cc:Work>
  </rdf:RDF>
 </metadata>
 <defs>
  <style type="text/css">*{stroke-linejoin: round; stroke-linecap: butt}</style>
 </defs>
 <g id="figure_1">
  <g id="patch_1">
   <path d="M 0 477.797969 
L 349.2 477.797969 
L 349.2 0 
L 0 0 
z
" style="fill: #ffffff"/>
  </g>
  <g id="axes_1">
   <g id="patch_2">
    <path d="M 74.16 107.465969 
L 275.04 107.465969 
Q 278.388 107.465969 278.388 101.921969 
L 278.388 63.113969 
Q 278.388 57.569969 275.04 57.569969 
L 74.16 57.569969 
Q 70.812 57.569969 70.812 63.113969 
L 70.812 101.921969 
Q 70.812 107.465969 74.16 107.465969 
z
" clip-path="url(#pb22f9f6e5d)" style="fill: #3498db; opacity: 0.85; stroke: #2c3e50; stroke-width: 1.5; stroke-linejoin: miter"/>
   </g>
   <g id="patch_3">
    <path d="M 74.16 162.905969 
L 275.04 162.905969 
Q 278.388 162.905969 278.388 157.361969 
L 278.388 118.553969 
Q 278.388 113.009969 275.04 113.009969 
L 74.16 113.009969 
Q 70.812 113.009969 70.812 118.553969 
L 70.812 157.361969 
Q 70.812 162.905969 74.16 162.905969 
z
" clip-path="url(#pb22f9f6e5d)" style="fill: #2ecc71; opacity: 0.85; stroke: #2c3e50; stroke-width: 1.5; stroke-linejoin: miter"/>
   </g>
   <g id="patch_4">
    <path d="M 74.16 218.345969 
L 275.04 218.345969 
Q 278.388 218.345969 278.388 212.801969 
L 278.388 173.993969 
Q 278.388 168.449969 275.04 168.449969 
L 74.16 168.449969 
Q 70.812 168.449969 70.812 173.993969 
L 70.812 212.801969 
Q 70.812 218.345969 74.16 218.345969 
z
" clip-path="url(#pb22f9f6e5d)" style="fill: #ecf0f1; opacity: 0.85; stroke: #2c3e50; stroke-width: 1.5; stroke-linejoin: miter"/>
   </g>
   <g id="patch_5">
    <path d="M 74.16 273.785969 
L 275.04 273.785969 
Q 278.388 273.785969 278.388 268.241969 
L 278.388 229.433969 
Q 278.388 223.889969 275.04 223.889969 
L 74.16 223.889969 
Q 70.812 223.889969 70.812 229.433969 
L 70.812 268.241969 
Q 70.812 273.785969 74.16 273.785969 
z
" clip-path="url(#pb22f9f6e5d)" style="fill: #2ecc71; opacity: 0.85; stroke: #2c3e50; stroke-width: 1.5; stroke-linejoin: miter"/>
   </g>
   <g id="patch_6">
    <path d="M 74.16 329.225969 
L 275.04 329.225969 
Q 278.388 329.225969 278.388 323.681969 
L 278.388 284.873969 
Q 278.388 279.329969 275.04 279.329969 
L 74.16 279.329969 
Q 70.812 279.329969 70.812 284.873969 
L 70.812 323.681969 
Q 70.812 329.225969 74.16 329.225969 
z
" clip-path="url(#pb22f9f6e5d)" style="fill: #ecf0f1; opacity: 0.85; stroke: #2c3e50; stroke-width: 1.5; stroke-linejoin: miter"/>
   </g>
   <g id="patch_7">
    <path d="M 74.16 384.665969 
L 275.04 384.665969 
Q 278.388 384.665969 278.388 379.121969 
L 278.388 340.313969 
Q 278.388 334.769969 275.04 334.769969 
L 74.16 334.769969 
Q 70.812 334.769969 70.812 340.313969 
L 70.812 379.121969 
Q 70.812 384.665969 74.16 384.665969 
z
" clip-path="url(#pb22f9f6e5d)" style="fill: #ecf0f1; opacity: 0.85; stroke: #2c3e50; stroke-width: 1.5; stroke-linejoin: miter"/>
   </g>
   <g id="patch_8">
    <path d="M 74.16 440.105969 
L 275.04 440.105969 
Q 278.388 440.105969 278.388 434.561969 
L 278.388 395.753969 
Q 278.388 390.209969 275.04 390.209969 
L 74.16 390.209969 
Q 70.812 390.209969 70.812 395.753969 
L 70.812 434.561969 
Q 70.812 440.105969 74.16 440.105969 
z
" clip-path="url(#pb22f9f6e5d)" style="fill: #ecf0f1; opacity: 0.85; stroke: #2c3e50; stroke-width: 1.5; stroke-linejoin: miter"/>
   </g>
   <g id="text_1">
    <!-- Total patients -->
    <g style="fill: #2c3e50" transform="translate(139.701797 79.962391) scale(0.09 -0.09)">
     <defs>
      <path id="DejaVuSans-Bold-54" d="M 31 4666 
L 4331 4666 
L 4331 3756 
L 2784 3756 
L 2784 0 
L 1581 0 
L 1581 3756 
L 31 3756 
L 31 4666 
z
" transform="scale(0.015625)"/>
      <path id="DejaVuSans-Bold-6f" d="M 2203 2784 
Q 1831 2784 1636 2517 
Q 1441 2250 1441 1747 
Q 1441 1244 1636 976 
Q 1831 709 2203 709 
Q 2569 709 2762 976 
Q 2956 1244 2956 1747 
Q 2956 2250 2762 2517 
Q 2569 2784 2203 2784 
z
M 2203 3584 
Q 3106 3584 3614 3096 
Q 4122 2609 4122 1747 
Q 4122 884 3614 396 
Q 3106 -91 2203 -91 
Q 1297 -91 786 396 
Q 275 884 275 1747 
Q 275 2609 786 3096 
Q 1297 3584 2203 3584 
z
" transform="scale(0.015625)"/>
      <path id="DejaVuSans-Bold-74" d="M 1759 4494 
L 1759 3500 
L 2913 3500 
L 2913 2700 
L 1759 2700 
L 1759 1216 
Q 1759 972 1856 886 
Q 1953 800 2241 800 
L 2816 800 
L 2816 0 
L 1856 0 
Q 1194 0 917 276 
Q 641 553 641 1216 
L 641 2700 
L 84 2700 
L 84 3500 
L 641 3500 
L 641 4494 
L 1759 4494 
z
" transform="scale(0.015625)"/>
      <path id="DejaVuSans-Bold-61" d="M 2106 1575 
Q 1756 1575 1579 1456 
Q 1403 1338 1403 1106 
Q 1403 894 1545 773 
Q 1688 653 1941 653 
Q 2256 653 2472 879 
Q 2688 1106 2688 1447 
L 2688 1575 
L 2106 1575 
z
M 3816 1997 
L 3816 0 
L 2688 0 
L 2688 519 
Q 2463 200 2181 54 
Q 1900 -91 1497 -91 
Q 953 -91 614 226 
Q 275 544 275 1050 
Q 275 1666 698 1953 
Q 1122 2241 2028 2241 
L 2688 2241 
L 2688 2328 
Q 2688 2594 2478 2717 
Q 2269 2841 1825 2841 
Q 1466 2841 1156 2769 
Q 847 2697 581 2553 
L 581 3406 
Q 941 3494 1303 3539 
Q 1666 3584 2028 3584 
Q 2975 3584 3395 3211 
Q 3816 2838 3816 1997 
z
" transform="scale(0.015625)"/>
      <path id="DejaVuSans-Bold-6c" d="M 538 4863 
L 1656 4863 
L 1656 0 
L 538 0 
L 538 4863 
z
" transform="scale(0.015625)"/>
      <path id="DejaVuSans-Bold-20" transform="scale(0.015625)"/>
      <path id="DejaVuSans-Bold-70" d="M 1656 506 
L 1656 -1331 
L 538 -1331 
L 538 3500 
L 1656 3500 
L 1656 2988 
Q 1888 3294 2169 3439 
Q 2450 3584 2816 3584 
Q 3463 3584 3878 3070 
Q 4294 2556 4294 1747 
Q 4294 938 3878 423 
Q 3463 -91 2816 -91 
Q 2450 -91 2169 54 
Q 1888 200 1656 506 
z
M 2400 2772 
Q 2041 2772 1848 2508 
Q 1656 2244 1656 1747 
Q 1656 1250 1848 986 
Q 2041 722 2400 722 
Q 2759 722 2948 984 
Q 3138 1247 3138 1747 
Q 3138 2247 2948 2509 
Q 2759 2772 2400 2772 
z
" transform="scale(0.015625)"/>
      <path id="DejaVuSans-Bold-69" d="M 538 3500 
L 1656 3500 
L 1656 0 
L 538 0 
L 538 3500 
z
M 538 4863 
L 1656 4863 
L 1656 3950 
L 538 3950 
L 538 4863 
z
" transform="scale(0.015625)"/>
      <path id="DejaVuSans-Bold-65" d="M 4031 1759 
L 4031 1441 
L 1416 1441 
Q 1456 1047 1700 850 
Q 1944 653 2381 653 
Q 2734 653 3104 758 
Q 3475 863 3866 1075 
L 3866 213 
Q 3469 63 3072 -14 
Q 2675 -91 2278 -91 
Q 1328 -91 801 392 
Q 275 875 275 1747 
Q 275 2603 792 3093 
Q 1309 3584 2216 3584 
Q 3041 3584 3536 3087 
Q 4031 2591 4031 1759 
z
M 2881 2131 
Q 2881 2450 2695 2645 
Q 2509 2841 2209 2841 
Q 1884 2841 1681 2658 
Q 1478 2475 1428 2131 
L 2881 2131 
z
" transform="scale(0.015625)"/>
      <path id="DejaVuSans-Bold-6e" d="M 4056 2131 
L 4056 0 
L 2931 0 
L 2931 347 
L 2931 1631 
Q 2931 2084 2911 2256 
Q 2891 2428 2841 2509 
Q 2775 2619 2662 2680 
Q 2550 2741 2406 2741 
Q 2056 2741 1856 2470 
Q 1656 2200 1656 1722 
L 1656 0 
L 538 0 
L 538 3500 
L 1656 3500 
L 1656 2988 
Q 1909 3294 2193 3439 
Q 2478 3584 2822 3584 
Q 3428 3584 3742 3212 
Q 4056 2841 4056 2131 
z
" transform="scale(0.015625)"/>
      <path id="DejaVuSans-Bold-73" d="M 3272 3391 
L 3272 2541 
Q 2913 2691 2578 2766 
Q 2244 2841 1947 2841 
Q 1628 2841 1473 2761 
Q 1319 2681 1319 2516 
Q 1319 2381 1436 2309 
Q 1553 2238 1856 2203 
L 2053 2175 
Q 2913 2066 3209 1816 
Q 3506 1566 3506 1031 
Q 3506 472 3093 190 
Q 2681 -91 1863 -91 
Q 1516 -91 1145 -36 
Q 775 19 384 128 
L 384 978 
Q 719 816 1070 734 
Q 1422 653 1784 653 
Q 2113 653 2278 743 
Q 2444 834 2444 1013 
Q 2444 1163 2330 1236 
Q 2216 1309 1875 1350 
L 1678 1375 
Q 931 1469 631 1722 
Q 331 1975 331 2491 
Q 331 3047 712 3315 
Q 1094 3584 1881 3584 
Q 2191 3584 2531 3537 
Q 2872 3491 3272 3391 
z
" transform="scale(0.015625)"/>
     </defs>
     <use xlink:href="#DejaVuSans-Bold-54"/>
     <use xlink:href="#DejaVuSans-Bold-6f" transform="translate(54.962891 0)"/>
     <use xlink:href="#DejaVuSans-Bold-74" transform="translate(123.664062 0)"/>
     <use xlink:href="#DejaVuSans-Bold-61" transform="translate(171.466797 0)"/>
     <use xlink:href="#DejaVuSans-Bold-6c" transform="translate(238.947266 0)"/>
     <use xlink:href="#DejaVuSans-Bold-20" transform="translate(273.224609 0)"/>
     <use xlink:href="#DejaVuSans-Bold-70" transform="translate(308.039062 0)"/>
     <use xlink:href="#DejaVuSans-Bold-61" transform="translate(379.621094 0)"/>
     <use xlink:href="#DejaVuSans-Bold-74" transform="translate(447.101562 0)"/>
     <use xlink:href="#DejaVuSans-Bold-69" transform="translate(494.904297 0)"/>
     <use xlink:href="#DejaVuSans-Bold-65" transform="translate(529.181641 0)"/>
     <use xlink:href="#DejaVuSans-Bold-6e" transform="translate(597.003906 0)"/>
     <use xlink:href="#DejaVuSans-Bold-74" transform="translate(668.195312 0)"/>
     <use xlink:href="#DejaVuSans-Bold-73" transform="translate(715.998047 0)"/>
    </g>
    <!-- N = 10,871 (nan) -->
    <g style="fill: #2c3e50" transform="translate(131.442188 90.040422) scale(0.09 -0.09)">
     <defs>
      <path id="DejaVuSans-Bold-4e" d="M 588 4666 
L 1931 4666 
L 3628 1466 
L 3628 4666 
L 4769 4666 
L 4769 0 
L 3425 0 
L 1728 3200 
L 1728 0 
L 588 0 
L 588 4666 
z
" transform="scale(0.015625)"/>
      <path id="DejaVuSans-Bold-3d" d="M 678 3084 
L 4684 3084 
L 4684 2350 
L 678 2350 
L 678 3084 
z
M 678 1663 
L 4684 1663 
L 4684 922 
L 678 922 
L 678 1663 
z
" transform="scale(0.015625)"/>
      <path id="DejaVuSans-Bold-31" d="M 750 831 
L 1813 831 
L 1813 3847 
L 722 3622 
L 722 4441 
L 1806 4666 
L 2950 4666 
L 2950 831 
L 4013 831 
L 4013 0 
L 750 0 
L 750 831 
z
" transform="scale(0.015625)"/>
      <path id="DejaVuSans-Bold-30" d="M 2944 2338 
Q 2944 3213 2780 3570 
Q 2616 3928 2228 3928 
Q 1841 3928 1675 3570 
Q 1509 3213 1509 2338 
Q 1509 1453 1675 1090 
Q 1841 728 2228 728 
Q 2613 728 2778 1090 
Q 2944 1453 2944 2338 
z
M 4147 2328 
Q 4147 1169 3647 539 
Q 3147 -91 2228 -91 
Q 1306 -91 806 539 
Q 306 1169 306 2328 
Q 306 3491 806 4120 
Q 1306 4750 2228 4750 
Q 3147 4750 3647 4120 
Q 4147 3491 4147 2328 
z
" transform="scale(0.015625)"/>
      <path id="DejaVuSans-Bold-2c" d="M 653 1209 
L 1778 1209 
L 1778 256 
L 1006 -909 
L 341 -909 
L 653 256 
L 653 1209 
z
" transform="scale(0.015625)"/>
      <path id="DejaVuSans-Bold-38" d="M 2228 2088 
Q 1891 2088 1709 1903 
Q 1528 1719 1528 1375 
Q 1528 1031 1709 848 
Q 1891 666 2228 666 
Q 2563 666 2741 848 
Q 2919 1031 2919 1375 
Q 2919 1722 2741 1905 
Q 2563 2088 2228 2088 
z
M 1350 2484 
Q 925 2613 709 2878 
Q 494 3144 494 3541 
Q 494 4131 934 4440 
Q 1375 4750 2228 4750 
Q 3075 4750 3515 4442 
Q 3956 4134 3956 3541 
Q 3956 3144 3739 2878 
Q 3522 2613 3097 2484 
Q 3572 2353 3814 2058 
Q 4056 1763 4056 1313 
Q 4056 619 3595 264 
Q 3134 -91 2228 -91 
Q 1319 -91 855 264 
Q 391 619 391 1313 
Q 391 1763 633 2058 
Q 875 2353 1350 2484 
z
M 1631 3419 
Q 1631 3141 1786 2991 
Q 1941 2841 2228 2841 
Q 2509 2841 2662 2991 
Q 2816 3141 2816 3419 
Q 2816 3697 2662 3845 
Q 2509 3994 2228 3994 
Q 1941 3994 1786 3844 
Q 1631 3694 1631 3419 
z
" transform="scale(0.015625)"/>
      <path id="DejaVuSans-Bold-37" d="M 428 4666 
L 3944 4666 
L 3944 3988 
L 2125 0 
L 953 0 
L 2675 3781 
L 428 3781 
L 428 4666 
z
" transform="scale(0.015625)"/>
      <path id="DejaVuSans-Bold-28" d="M 2413 -844 
L 1484 -844 
Q 1006 -72 778 623 
Q 550 1319 550 2003 
Q 550 2688 779 3389 
Q 1009 4091 1484 4856 
L 2413 4856 
Q 2013 4116 1813 3408 
Q 1613 2700 1613 2009 
Q 1613 1319 1811 609 
Q 2009 -100 2413 -844 
z
" transform="scale(0.015625)"/>
      <path id="DejaVuSans-Bold-29" d="M 513 -844 
Q 913 -100 1113 609 
Q 1313 1319 1313 2009 
Q 1313 2700 1113 3408 
Q 913 4116 513 4856 
L 1441 4856 
Q 1916 4091 2145 3389 
Q 2375 2688 2375 2003 
Q 2375 1319 2147 623 
Q 1919 -72 1441 -844 
L 513 -844 
z
" transform="scale(0.015625)"/>
     </defs>
     <use xlink:href="#DejaVuSans-Bold-4e"/>
     <use xlink:href="#DejaVuSans-Bold-20" transform="translate(83.691406 0)"/>
     <use xlink:href="#DejaVuSans-Bold-3d" transform="translate(118.505859 0)"/>
     <use xlink:href="#DejaVuSans-Bold-20" transform="translate(202.294922 0)"/>
     <use xlink:href="#DejaVuSans-Bold-31" transform="translate(237.109375 0)"/>
     <use xlink:href="#DejaVuSans-Bold-30" transform="translate(306.689453 0)"/>
     <use xlink:href="#DejaVuSans-Bold-2c" transform="translate(376.269531 0)"/>
     <use xlink:href="#DejaVuSans-Bold-38" transform="translate(414.257812 0)"/>
     <use xlink:href="#DejaVuSans-Bold-37" transform="translate(483.837891 0)"/>
     <use xlink:href="#DejaVuSans-Bold-31" transform="translate(553.417969 0)"/>
     <use xlink:href="#DejaVuSans-Bold-20" transform="translate(622.998047 0)"/>
     <use xlink:href="#DejaVuSans-Bold-28" transform="translate(657.8125 0)"/>
     <use xlink:href="#DejaVuSans-Bold-6e" transform="translate(703.515625 0)"/>
     <use xlink:href="#DejaVuSans-Bold-61" transform="translate(774.707031 0)"/>
     <use xlink:href="#DejaVuSans-Bold-6e" transform="translate(842.1875 0)"/>
     <use xlink:href="#DejaVuSans-Bold-29" transform="translate(913.378906 0)"/>
    </g>
   </g>
   <g id="patch_9">
    <path d="M 174.6 113.781473 
Q 174.6 110.238322 174.6 108.372223 
" style="fill: none; stroke: #2c3e50; stroke-width: 1.5; stroke-linecap: round"/>
    <path d="M 172.6 112.372223 
L 174.6 108.372223 
L 176.6 112.372223 
" style="fill: none; stroke: #2c3e50; stroke-width: 1.5; stroke-linecap: round"/>
   </g>
   <g id="text_2">
    <!-- Analysis-eligible -->
    <g style="fill: #2c3e50" transform="translate(132.917344 135.367234) scale(0.09 -0.09)">
     <defs>
      <path id="DejaVuSans-Bold-41" d="M 3419 850 
L 1538 850 
L 1241 0 
L 31 0 
L 1759 4666 
L 3194 4666 
L 4922 0 
L 3713 0 
L 3419 850 
z
M 1838 1716 
L 3116 1716 
L 2478 3572 
L 1838 1716 
z
" transform="scale(0.015625)"/>
      <path id="DejaVuSans-Bold-79" d="M 78 3500 
L 1197 3500 
L 2138 1125 
L 2938 3500 
L 4056 3500 
L 2584 -331 
Q 2363 -916 2067 -1148 
Q 1772 -1381 1288 -1381 
L 641 -1381 
L 641 -647 
L 991 -647 
Q 1275 -647 1404 -556 
Q 1534 -466 1606 -231 
L 1638 -134 
L 78 3500 
z
" transform="scale(0.015625)"/>
      <path id="DejaVuSans-Bold-2d" d="M 347 2297 
L 2309 2297 
L 2309 1388 
L 347 1388 
L 347 2297 
z
" transform="scale(0.015625)"/>
      <path id="DejaVuSans-Bold-67" d="M 2919 594 
Q 2688 288 2409 144 
Q 2131 0 1766 0 
Q 1125 0 706 504 
Q 288 1009 288 1791 
Q 288 2575 706 3076 
Q 1125 3578 1766 3578 
Q 2131 3578 2409 3434 
Q 2688 3291 2919 2981 
L 2919 3500 
L 4044 3500 
L 4044 353 
Q 4044 -491 3511 -936 
Q 2978 -1381 1966 -1381 
Q 1638 -1381 1331 -1331 
Q 1025 -1281 716 -1178 
L 716 -306 
Q 1009 -475 1290 -558 
Q 1572 -641 1856 -641 
Q 2406 -641 2662 -400 
Q 2919 -159 2919 353 
L 2919 594 
z
M 2181 2772 
Q 1834 2772 1640 2515 
Q 1447 2259 1447 1791 
Q 1447 1309 1634 1061 
Q 1822 813 2181 813 
Q 2531 813 2725 1069 
Q 2919 1325 2919 1791 
Q 2919 2259 2725 2515 
Q 2531 2772 2181 2772 
z
" transform="scale(0.015625)"/>
      <path id="DejaVuSans-Bold-62" d="M 2400 722 
Q 2759 722 2948 984 
Q 3138 1247 3138 1747 
Q 3138 2247 2948 2509 
Q 2759 2772 2400 2772 
Q 2041 2772 1848 2508 
Q 1656 2244 1656 1747 
Q 1656 1250 1848 986 
Q 2041 722 2400 722 
z
M 1656 2988 
Q 1888 3294 2169 3439 
Q 2450 3584 2816 3584 
Q 3463 3584 3878 3070 
Q 4294 2556 4294 1747 
Q 4294 938 3878 423 
Q 3463 -91 2816 -91 
Q 2450 -91 2169 54 
Q 1888 200 1656 506 
L 1656 0 
L 538 0 
L 538 4863 
L 1656 4863 
L 1656 2988 
z
" transform="scale(0.015625)"/>
     </defs>
     <use xlink:href="#DejaVuSans-Bold-41"/>
     <use xlink:href="#DejaVuSans-Bold-6e" transform="translate(77.392578 0)"/>
     <use xlink:href="#DejaVuSans-Bold-61" transform="translate(148.583984 0)"/>
     <use xlink:href="#DejaVuSans-Bold-6c" transform="translate(216.064453 0)"/>
     <use xlink:href="#DejaVuSans-Bold-79" transform="translate(250.341797 0)"/>
     <use xlink:href="#DejaVuSans-Bold-73" transform="translate(315.527344 0)"/>
     <use xlink:href="#DejaVuSans-Bold-69" transform="translate(375.048828 0)"/>
     <use xlink:href="#DejaVuSans-Bold-73" transform="translate(409.326172 0)"/>
     <use xlink:href="#DejaVuSans-Bold-2d" transform="translate(468.847656 0)"/>
     <use xlink:href="#DejaVuSans-Bold-65" transform="translate(510.351562 0)"/>
     <use xlink:href="#DejaVuSans-Bold-6c" transform="translate(578.173828 0)"/>
     <use xlink:href="#DejaVuSans-Bold-69" transform="translate(612.451172 0)"/>
     <use xlink:href="#DejaVuSans-Bold-67" transform="translate(646.728516 0)"/>
     <use xlink:href="#DejaVuSans-Bold-69" transform="translate(718.310547 0)"/>
     <use xlink:href="#DejaVuSans-Bold-62" transform="translate(752.587891 0)"/>
     <use xlink:href="#DejaVuSans-Bold-6c" transform="translate(824.169922 0)"/>
     <use xlink:href="#DejaVuSans-Bold-65" transform="translate(858.447266 0)"/>
    </g>
    <!-- N = 4,136 (38.0%) -->
    <g style="fill: #2c3e50" transform="translate(128.405391 145.515578) scale(0.09 -0.09)">
     <defs>
      <path id="DejaVuSans-Bold-34" d="M 2356 3675 
L 1038 1722 
L 2356 1722 
L 2356 3675 
z
M 2156 4666 
L 3494 4666 
L 3494 1722 
L 4159 1722 
L 4159 850 
L 3494 850 
L 3494 0 
L 2356 0 
L 2356 850 
L 288 850 
L 288 1881 
L 2156 4666 
z
" transform="scale(0.015625)"/>
      <path id="DejaVuSans-Bold-33" d="M 2981 2516 
Q 3453 2394 3698 2092 
Q 3944 1791 3944 1325 
Q 3944 631 3412 270 
Q 2881 -91 1863 -91 
Q 1503 -91 1142 -33 
Q 781 25 428 141 
L 428 1069 
Q 766 900 1098 814 
Q 1431 728 1753 728 
Q 2231 728 2486 893 
Q 2741 1059 2741 1369 
Q 2741 1688 2480 1852 
Q 2219 2016 1709 2016 
L 1228 2016 
L 1228 2791 
L 1734 2791 
Q 2188 2791 2409 2933 
Q 2631 3075 2631 3366 
Q 2631 3634 2415 3781 
Q 2200 3928 1806 3928 
Q 1516 3928 1219 3862 
Q 922 3797 628 3669 
L 628 4550 
Q 984 4650 1334 4700 
Q 1684 4750 2022 4750 
Q 2931 4750 3382 4451 
Q 3834 4153 3834 3553 
Q 3834 3144 3618 2883 
Q 3403 2622 2981 2516 
z
" transform="scale(0.015625)"/>
      <path id="DejaVuSans-Bold-36" d="M 2316 2303 
Q 2000 2303 1842 2098 
Q 1684 1894 1684 1484 
Q 1684 1075 1842 870 
Q 2000 666 2316 666 
Q 2634 666 2792 870 
Q 2950 1075 2950 1484 
Q 2950 1894 2792 2098 
Q 2634 2303 2316 2303 
z
M 3803 4544 
L 3803 3681 
Q 3506 3822 3243 3889 
Q 2981 3956 2731 3956 
Q 2194 3956 1894 3657 
Q 1594 3359 1544 2772 
Q 1750 2925 1990 3001 
Q 2231 3078 2516 3078 
Q 3231 3078 3670 2659 
Q 4109 2241 4109 1563 
Q 4109 813 3618 361 
Q 3128 -91 2303 -91 
Q 1394 -91 895 523 
Q 397 1138 397 2266 
Q 397 3422 980 4083 
Q 1563 4744 2578 4744 
Q 2900 4744 3203 4694 
Q 3506 4644 3803 4544 
z
" transform="scale(0.015625)"/>
      <path id="DejaVuSans-Bold-2e" d="M 653 1209 
L 1778 1209 
L 1778 0 
L 653 0 
L 653 1209 
z
" transform="scale(0.015625)"/>
      <path id="DejaVuSans-Bold-25" d="M 4959 1925 
Q 4738 1925 4616 1733 
Q 4494 1541 4494 1184 
Q 4494 825 4614 633 
Q 4734 441 4959 441 
Q 5184 441 5303 633 
Q 5422 825 5422 1184 
Q 5422 1541 5301 1733 
Q 5181 1925 4959 1925 
z
M 4959 2450 
Q 5541 2450 5875 2112 
Q 6209 1775 6209 1184 
Q 6209 594 5875 251 
Q 5541 -91 4959 -91 
Q 4378 -91 4042 251 
Q 3706 594 3706 1184 
Q 3706 1772 4042 2111 
Q 4378 2450 4959 2450 
z
M 2094 -91 
L 1403 -91 
L 4319 4750 
L 5013 4750 
L 2094 -91 
z
M 1453 4750 
Q 2034 4750 2367 4411 
Q 2700 4072 2700 3481 
Q 2700 2891 2367 2550 
Q 2034 2209 1453 2209 
Q 872 2209 539 2550 
Q 206 2891 206 3481 
Q 206 4072 539 4411 
Q 872 4750 1453 4750 
z
M 1453 4225 
Q 1228 4225 1106 4031 
Q 984 3838 984 3481 
Q 984 3122 1106 2926 
Q 1228 2731 1453 2731 
Q 1678 2731 1798 2926 
Q 1919 3122 1919 3481 
Q 1919 3838 1797 4031 
Q 1675 4225 1453 4225 
z
" transform="scale(0.015625)"/>
     </defs>
     <use xlink:href="#DejaVuSans-Bold-4e"/>
     <use xlink:href="#DejaVuSans-Bold-20" transform="translate(83.691406 0)"/>
     <use xlink:href="#DejaVuSans-Bold-3d" transform="translate(118.505859 0)"/>
     <use xlink:href="#DejaVuSans-Bold-20" transform="translate(202.294922 0)"/>
     <use xlink:href="#DejaVuSans-Bold-34" transform="translate(237.109375 0)"/>
     <use xlink:href="#DejaVuSans-Bold-2c" transform="translate(306.689453 0)"/>
     <use xlink:href="#DejaVuSans-Bold-31" transform="translate(344.677734 0)"/>
     <use xlink:href="#DejaVuSans-Bold-33" transform="translate(414.257812 0)"/>
     <use xlink:href="#DejaVuSans-Bold-36" transform="translate(483.837891 0)"/>
     <use xlink:href="#DejaVuSans-Bold-20" transform="translate(553.417969 0)"/>
     <use xlink:href="#DejaVuSans-Bold-28" transform="translate(588.232422 0)"/>
     <use xlink:href="#DejaVuSans-Bold-33" transform="translate(633.935547 0)"/>
     <use xlink:href="#DejaVuSans-Bold-38" transform="translate(703.515625 0)"/>
     <use xlink:href="#DejaVuSans-Bold-2e" transform="translate(773.095703 0)"/>
     <use xlink:href="#DejaVuSans-Bold-30" transform="translate(811.083984 0)"/>
     <use xlink:href="#DejaVuSans-Bold-25" transform="translate(880.664062 0)"/>
     <use xlink:href="#DejaVuSans-Bold-29" transform="translate(980.859375 0)"/>
    </g>
   </g>
   <g id="patch_10">
    <path d="M 174.6 169.221473 
Q 174.6 165.678322 174.6 163.812223 
" style="fill: none; stroke: #2c3e50; stroke-width: 1.5; stroke-linecap: round"/>
    <path d="M 172.6 167.812223 
L 174.6 163.812223 
L 176.6 167.812223 
" style="fill: none; stroke: #2c3e50; stroke-width: 1.5; stroke-linecap: round"/>
   </g>
   <g id="text_3">
    <!-- With histology (cancer) -->
    <g style="fill: #2c3e50" transform="translate(115.190859 190.807234) scale(0.09 -0.09)">
     <defs>
      <path id="DejaVuSans-Bold-57" d="M 191 4666 
L 1344 4666 
L 2150 1275 
L 2950 4666 
L 4109 4666 
L 4909 1275 
L 5716 4666 
L 6859 4666 
L 5759 0 
L 4372 0 
L 3525 3547 
L 2688 0 
L 1300 0 
L 191 4666 
z
" transform="scale(0.015625)"/>
      <path id="DejaVuSans-Bold-68" d="M 4056 2131 
L 4056 0 
L 2931 0 
L 2931 347 
L 2931 1625 
Q 2931 2084 2911 2256 
Q 2891 2428 2841 2509 
Q 2775 2619 2662 2680 
Q 2550 2741 2406 2741 
Q 2056 2741 1856 2470 
Q 1656 2200 1656 1722 
L 1656 0 
L 538 0 
L 538 4863 
L 1656 4863 
L 1656 2988 
Q 1909 3294 2193 3439 
Q 2478 3584 2822 3584 
Q 3428 3584 3742 3212 
Q 4056 2841 4056 2131 
z
" transform="scale(0.015625)"/>
      <path id="DejaVuSans-Bold-63" d="M 3366 3391 
L 3366 2478 
Q 3138 2634 2908 2709 
Q 2678 2784 2431 2784 
Q 1963 2784 1702 2511 
Q 1441 2238 1441 1747 
Q 1441 1256 1702 982 
Q 1963 709 2431 709 
Q 2694 709 2930 787 
Q 3166 866 3366 1019 
L 3366 103 
Q 3103 6 2833 -42 
Q 2563 -91 2291 -91 
Q 1344 -91 809 395 
Q 275 881 275 1747 
Q 275 2613 809 3098 
Q 1344 3584 2291 3584 
Q 2566 3584 2833 3536 
Q 3100 3488 3366 3391 
z
" transform="scale(0.015625)"/>
      <path id="DejaVuSans-Bold-72" d="M 3138 2547 
Q 2991 2616 2845 2648 
Q 2700 2681 2553 2681 
Q 2122 2681 1889 2404 
Q 1656 2128 1656 1613 
L 1656 0 
L 538 0 
L 538 3500 
L 1656 3500 
L 1656 2925 
Q 1872 3269 2151 3426 
Q 2431 3584 2822 3584 
Q 2878 3584 2943 3579 
Q 3009 3575 3134 3559 
L 3138 2547 
z
" transform="scale(0.015625)"/>
     </defs>
     <use xlink:href="#DejaVuSans-Bold-57"/>
     <use xlink:href="#DejaVuSans-Bold-69" transform="translate(110.302734 0)"/>
     <use xlink:href="#DejaVuSans-Bold-74" transform="translate(144.580078 0)"/>
     <use xlink:href="#DejaVuSans-Bold-68" transform="translate(192.382812 0)"/>
     <use xlink:href="#DejaVuSans-Bold-20" transform="translate(263.574219 0)"/>
     <use xlink:href="#DejaVuSans-Bold-68" transform="translate(298.388672 0)"/>
     <use xlink:href="#DejaVuSans-Bold-69" transform="translate(369.580078 0)"/>
     <use xlink:href="#DejaVuSans-Bold-73" transform="translate(403.857422 0)"/>
     <use xlink:href="#DejaVuSans-Bold-74" transform="translate(463.378906 0)"/>
     <use xlink:href="#DejaVuSans-Bold-6f" transform="translate(511.181641 0)"/>
     <use xlink:href="#DejaVuSans-Bold-6c" transform="translate(579.882812 0)"/>
     <use xlink:href="#DejaVuSans-Bold-6f" transform="translate(614.160156 0)"/>
     <use xlink:href="#DejaVuSans-Bold-67" transform="translate(682.861328 0)"/>
     <use xlink:href="#DejaVuSans-Bold-79" transform="translate(754.443359 0)"/>
     <use xlink:href="#DejaVuSans-Bold-20" transform="translate(819.628906 0)"/>
     <use xlink:href="#DejaVuSans-Bold-28" transform="translate(854.443359 0)"/>
     <use xlink:href="#DejaVuSans-Bold-63" transform="translate(900.146484 0)"/>
     <use xlink:href="#DejaVuSans-Bold-61" transform="translate(959.423828 0)"/>
     <use xlink:href="#DejaVuSans-Bold-6e" transform="translate(1026.904297 0)"/>
     <use xlink:href="#DejaVuSans-Bold-63" transform="translate(1098.095703 0)"/>
     <use xlink:href="#DejaVuSans-Bold-65" transform="translate(1157.373047 0)"/>
     <use xlink:href="#DejaVuSans-Bold-72" transform="translate(1225.195312 0)"/>
     <use xlink:href="#DejaVuSans-Bold-29" transform="translate(1274.511719 0)"/>
    </g>
    <!-- N = 4,137 (38.1%) -->
    <g style="fill: #2c3e50" transform="translate(128.405391 200.955578) scale(0.09 -0.09)">
     <use xlink:href="#DejaVuSans-Bold-4e"/>
     <use xlink:href="#DejaVuSans-Bold-20" transform="translate(83.691406 0)"/>
     <use xlink:href="#DejaVuSans-Bold-3d" transform="translate(118.505859 0)"/>
     <use xlink:href="#DejaVuSans-Bold-20" transform="translate(202.294922 0)"/>
     <use xlink:href="#DejaVuSans-Bold-34" transform="translate(237.109375 0)"/>
     <use xlink:href="#DejaVuSans-Bold-2c" transform="translate(306.689453 0)"/>
     <use xlink:href="#DejaVuSans-Bold-31" transform="translate(344.677734 0)"/>
     <use xlink:href="#DejaVuSans-Bold-33" transform="translate(414.257812 0)"/>
     <use xlink:href="#DejaVuSans-Bold-37" transform="translate(483.837891 0)"/>
     <use xlink:href="#DejaVuSans-Bold-20" transform="translate(553.417969 0)"/>
     <use xlink:href="#DejaVuSans-Bold-28" transform="translate(588.232422 0)"/>
     <use xlink:href="#DejaVuSans-Bold-33" transform="translate(633.935547 0)"/>
     <use xlink:href="#DejaVuSans-Bold-38" transform="translate(703.515625 0)"/>
     <use xlink:href="#DejaVuSans-Bold-2e" transform="translate(773.095703 0)"/>
     <use xlink:href="#DejaVuSans-Bold-31" transform="translate(811.083984 0)"/>
     <use xlink:href="#DejaVuSans-Bold-25" transform="translate(880.664062 0)"/>
     <use xlink:href="#DejaVuSans-Bold-29" transform="translate(980.859375 0)"/>
    </g>
   </g>
   <g id="patch_11">
    <path d="M 174.6 224.661473 
Q 174.6 221.118322 174.6 219.252223 
" style="fill: none; stroke: #2c3e50; stroke-width: 1.5; stroke-linecap: round"/>
    <path d="M 172.6 223.252223 
L 174.6 219.252223 
L 176.6 223.252223 
" style="fill: none; stroke: #2c3e50; stroke-width: 1.5; stroke-linecap: round"/>
   </g>
   <g id="text_4">
    <!-- Molecular-eligible -->
    <g style="fill: #2c3e50" transform="translate(129.180938 246.247234) scale(0.09 -0.09)">
     <defs>
      <path id="DejaVuSans-Bold-4d" d="M 588 4666 
L 2119 4666 
L 3181 2169 
L 4250 4666 
L 5778 4666 
L 5778 0 
L 4641 0 
L 4641 3413 
L 3566 897 
L 2803 897 
L 1728 3413 
L 1728 0 
L 588 0 
L 588 4666 
z
" transform="scale(0.015625)"/>
      <path id="DejaVuSans-Bold-75" d="M 500 1363 
L 500 3500 
L 1625 3500 
L 1625 3150 
Q 1625 2866 1622 2436 
Q 1619 2006 1619 1863 
Q 1619 1441 1641 1255 
Q 1663 1069 1716 984 
Q 1784 875 1895 815 
Q 2006 756 2150 756 
Q 2500 756 2700 1025 
Q 2900 1294 2900 1772 
L 2900 3500 
L 4019 3500 
L 4019 0 
L 2900 0 
L 2900 506 
Q 2647 200 2364 54 
Q 2081 -91 1741 -91 
Q 1134 -91 817 281 
Q 500 653 500 1363 
z
" transform="scale(0.015625)"/>
     </defs>
     <use xlink:href="#DejaVuSans-Bold-4d"/>
     <use xlink:href="#DejaVuSans-Bold-6f" transform="translate(99.511719 0)"/>
     <use xlink:href="#DejaVuSans-Bold-6c" transform="translate(168.212891 0)"/>
     <use xlink:href="#DejaVuSans-Bold-65" transform="translate(202.490234 0)"/>
     <use xlink:href="#DejaVuSans-Bold-63" transform="translate(270.3125 0)"/>
     <use xlink:href="#DejaVuSans-Bold-75" transform="translate(329.589844 0)"/>
     <use xlink:href="#DejaVuSans-Bold-6c" transform="translate(400.78125 0)"/>
     <use xlink:href="#DejaVuSans-Bold-61" transform="translate(435.058594 0)"/>
     <use xlink:href="#DejaVuSans-Bold-72" transform="translate(502.539062 0)"/>
     <use xlink:href="#DejaVuSans-Bold-2d" transform="translate(551.855469 0)"/>
     <use xlink:href="#DejaVuSans-Bold-65" transform="translate(593.359375 0)"/>
     <use xlink:href="#DejaVuSans-Bold-6c" transform="translate(661.181641 0)"/>
     <use xlink:href="#DejaVuSans-Bold-69" transform="translate(695.458984 0)"/>
     <use xlink:href="#DejaVuSans-Bold-67" transform="translate(729.736328 0)"/>
     <use xlink:href="#DejaVuSans-Bold-69" transform="translate(801.318359 0)"/>
     <use xlink:href="#DejaVuSans-Bold-62" transform="translate(835.595703 0)"/>
     <use xlink:href="#DejaVuSans-Bold-6c" transform="translate(907.177734 0)"/>
     <use xlink:href="#DejaVuSans-Bold-65" transform="translate(941.455078 0)"/>
    </g>
    <!-- N = 10,025 (92.2%) -->
    <g style="fill: #2c3e50" transform="translate(125.274375 256.395578) scale(0.09 -0.09)">
     <defs>
      <path id="DejaVuSans-Bold-32" d="M 1844 884 
L 3897 884 
L 3897 0 
L 506 0 
L 506 884 
L 2209 2388 
Q 2438 2594 2547 2791 
Q 2656 2988 2656 3200 
Q 2656 3528 2436 3728 
Q 2216 3928 1850 3928 
Q 1569 3928 1234 3808 
Q 900 3688 519 3450 
L 519 4475 
Q 925 4609 1322 4679 
Q 1719 4750 2100 4750 
Q 2938 4750 3402 4381 
Q 3866 4013 3866 3353 
Q 3866 2972 3669 2642 
Q 3472 2313 2841 1759 
L 1844 884 
z
" transform="scale(0.015625)"/>
      <path id="DejaVuSans-Bold-35" d="M 678 4666 
L 3669 4666 
L 3669 3781 
L 1638 3781 
L 1638 3059 
Q 1775 3097 1914 3117 
Q 2053 3138 2203 3138 
Q 3056 3138 3531 2711 
Q 4006 2284 4006 1522 
Q 4006 766 3489 337 
Q 2972 -91 2053 -91 
Q 1656 -91 1267 -14 
Q 878 63 494 219 
L 494 1166 
Q 875 947 1217 837 
Q 1559 728 1863 728 
Q 2300 728 2551 942 
Q 2803 1156 2803 1522 
Q 2803 1891 2551 2103 
Q 2300 2316 1863 2316 
Q 1603 2316 1309 2248 
Q 1016 2181 678 2041 
L 678 4666 
z
" transform="scale(0.015625)"/>
      <path id="DejaVuSans-Bold-39" d="M 641 103 
L 641 966 
Q 928 831 1190 764 
Q 1453 697 1709 697 
Q 2247 697 2547 995 
Q 2847 1294 2900 1881 
Q 2688 1725 2447 1647 
Q 2206 1569 1925 1569 
Q 1209 1569 770 1986 
Q 331 2403 331 3084 
Q 331 3838 820 4291 
Q 1309 4744 2131 4744 
Q 3044 4744 3544 4128 
Q 4044 3513 4044 2388 
Q 4044 1231 3459 570 
Q 2875 -91 1856 -91 
Q 1528 -91 1228 -42 
Q 928 6 641 103 
z
M 2125 2350 
Q 2441 2350 2600 2554 
Q 2759 2759 2759 3169 
Q 2759 3575 2600 3781 
Q 2441 3988 2125 3988 
Q 1809 3988 1650 3781 
Q 1491 3575 1491 3169 
Q 1491 2759 1650 2554 
Q 1809 2350 2125 2350 
z
" transform="scale(0.015625)"/>
     </defs>
     <use xlink:href="#DejaVuSans-Bold-4e"/>
     <use xlink:href="#DejaVuSans-Bold-20" transform="translate(83.691406 0)"/>
     <use xlink:href="#DejaVuSans-Bold-3d" transform="translate(118.505859 0)"/>
     <use xlink:href="#DejaVuSans-Bold-20" transform="translate(202.294922 0)"/>
     <use xlink:href="#DejaVuSans-Bold-31" transform="translate(237.109375 0)"/>
     <use xlink:href="#DejaVuSans-Bold-30" transform="translate(306.689453 0)"/>
     <use xlink:href="#DejaVuSans-Bold-2c" transform="translate(376.269531 0)"/>
     <use xlink:href="#DejaVuSans-Bold-30" transform="translate(414.257812 0)"/>
     <use xlink:href="#DejaVuSans-Bold-32" transform="translate(483.837891 0)"/>
     <use xlink:href="#DejaVuSans-Bold-35" transform="translate(553.417969 0)"/>
     <use xlink:href="#DejaVuSans-Bold-20" transform="translate(622.998047 0)"/>
     <use xlink:href="#DejaVuSans-Bold-28" transform="translate(657.8125 0)"/>
     <use xlink:href="#DejaVuSans-Bold-39" transform="translate(703.515625 0)"/>
     <use xlink:href="#DejaVuSans-Bold-32" transform="translate(773.095703 0)"/>
     <use xlink:href="#DejaVuSans-Bold-2e" transform="translate(842.675781 0)"/>
     <use xlink:href="#DejaVuSans-Bold-32" transform="translate(880.664062 0)"/>
     <use xlink:href="#DejaVuSans-Bold-25" transform="translate(950.244141 0)"/>
     <use xlink:href="#DejaVuSans-Bold-29" transform="translate(1050.439453 0)"/>
    </g>
   </g>
   <g id="patch_12">
    <path d="M 174.6 280.101473 
Q 174.6 276.558322 174.6 274.692223 
" style="fill: none; stroke: #2c3e50; stroke-width: 1.5; stroke-linecap: round"/>
    <path d="M 172.6 278.692223 
L 174.6 274.692223 
L 176.6 278.692223 
" style="fill: none; stroke: #2c3e50; stroke-width: 1.5; stroke-linecap: round"/>
   </g>
   <g id="text_5">
    <!-- RAI received -->
    <g style="fill: #2c3e50" transform="translate(142.671094 301.722391) scale(0.09 -0.09)">
     <defs>
      <path id="DejaVuSans-Bold-52" d="M 2297 2597 
Q 2675 2597 2839 2737 
Q 3003 2878 3003 3200 
Q 3003 3519 2839 3656 
Q 2675 3794 2297 3794 
L 1791 3794 
L 1791 2597 
L 2297 2597 
z
M 1791 1766 
L 1791 0 
L 588 0 
L 588 4666 
L 2425 4666 
Q 3347 4666 3776 4356 
Q 4206 4047 4206 3378 
Q 4206 2916 3982 2619 
Q 3759 2322 3309 2181 
Q 3556 2125 3751 1926 
Q 3947 1728 4147 1325 
L 4800 0 
L 3519 0 
L 2950 1159 
Q 2778 1509 2601 1637 
Q 2425 1766 2131 1766 
L 1791 1766 
z
" transform="scale(0.015625)"/>
      <path id="DejaVuSans-Bold-49" d="M 588 4666 
L 1791 4666 
L 1791 0 
L 588 0 
L 588 4666 
z
" transform="scale(0.015625)"/>
      <path id="DejaVuSans-Bold-76" d="M 97 3500 
L 1216 3500 
L 2088 1081 
L 2956 3500 
L 4078 3500 
L 2700 0 
L 1472 0 
L 97 3500 
z
" transform="scale(0.015625)"/>
      <path id="DejaVuSans-Bold-64" d="M 2919 2988 
L 2919 4863 
L 4044 4863 
L 4044 0 
L 2919 0 
L 2919 506 
Q 2688 197 2409 53 
Q 2131 -91 1766 -91 
Q 1119 -91 703 423 
Q 288 938 288 1747 
Q 288 2556 703 3070 
Q 1119 3584 1766 3584 
Q 2128 3584 2408 3439 
Q 2688 3294 2919 2988 
z
M 2181 722 
Q 2541 722 2730 984 
Q 2919 1247 2919 1747 
Q 2919 2247 2730 2509 
Q 2541 2772 2181 2772 
Q 1825 2772 1636 2509 
Q 1447 2247 1447 1747 
Q 1447 1247 1636 984 
Q 1825 722 2181 722 
z
" transform="scale(0.015625)"/>
     </defs>
     <use xlink:href="#DejaVuSans-Bold-52"/>
     <use xlink:href="#DejaVuSans-Bold-41" transform="translate(77.001953 0)"/>
     <use xlink:href="#DejaVuSans-Bold-49" transform="translate(154.394531 0)"/>
     <use xlink:href="#DejaVuSans-Bold-20" transform="translate(191.601562 0)"/>
     <use xlink:href="#DejaVuSans-Bold-72" transform="translate(226.416016 0)"/>
     <use xlink:href="#DejaVuSans-Bold-65" transform="translate(275.732422 0)"/>
     <use xlink:href="#DejaVuSans-Bold-63" transform="translate(343.554688 0)"/>
     <use xlink:href="#DejaVuSans-Bold-65" transform="translate(402.832031 0)"/>
     <use xlink:href="#DejaVuSans-Bold-69" transform="translate(470.654297 0)"/>
     <use xlink:href="#DejaVuSans-Bold-76" transform="translate(504.931641 0)"/>
     <use xlink:href="#DejaVuSans-Bold-65" transform="translate(570.117188 0)"/>
     <use xlink:href="#DejaVuSans-Bold-64" transform="translate(637.939453 0)"/>
    </g>
    <!-- N = 35 (0.3%) -->
    <g style="fill: #2c3e50" transform="translate(139.507734 311.800422) scale(0.09 -0.09)">
     <use xlink:href="#DejaVuSans-Bold-4e"/>
     <use xlink:href="#DejaVuSans-Bold-20" transform="translate(83.691406 0)"/>
     <use xlink:href="#DejaVuSans-Bold-3d" transform="translate(118.505859 0)"/>
     <use xlink:href="#DejaVuSans-Bold-20" transform="translate(202.294922 0)"/>
     <use xlink:href="#DejaVuSans-Bold-33" transform="translate(237.109375 0)"/>
     <use xlink:href="#DejaVuSans-Bold-35" transform="translate(306.689453 0)"/>
     <use xlink:href="#DejaVuSans-Bold-20" transform="translate(376.269531 0)"/>
     <use xlink:href="#DejaVuSans-Bold-28" transform="translate(411.083984 0)"/>
     <use xlink:href="#DejaVuSans-Bold-30" transform="translate(456.787109 0)"/>
     <use xlink:href="#DejaVuSans-Bold-2e" transform="translate(526.367188 0)"/>
     <use xlink:href="#DejaVuSans-Bold-33" transform="translate(564.355469 0)"/>
     <use xlink:href="#DejaVuSans-Bold-25" transform="translate(633.935547 0)"/>
     <use xlink:href="#DejaVuSans-Bold-29" transform="translate(734.130859 0)"/>
    </g>
   </g>
   <g id="patch_13">
    <path d="M 174.6 335.541473 
Q 174.6 331.998322 174.6 330.132223 
" style="fill: none; stroke: #2c3e50; stroke-width: 1.5; stroke-linecap: round"/>
    <path d="M 172.6 334.132223 
L 174.6 330.132223 
L 176.6 334.132223 
" style="fill: none; stroke: #2c3e50; stroke-width: 1.5; stroke-linecap: round"/>
   </g>
   <g id="text_6">
    <!-- Tg available -->
    <g style="fill: #2c3e50" transform="translate(143.7975 357.127234) scale(0.09 -0.09)">
     <use xlink:href="#DejaVuSans-Bold-54"/>
     <use xlink:href="#DejaVuSans-Bold-67" transform="translate(68.212891 0)"/>
     <use xlink:href="#DejaVuSans-Bold-20" transform="translate(139.794922 0)"/>
     <use xlink:href="#DejaVuSans-Bold-61" transform="translate(174.609375 0)"/>
     <use xlink:href="#DejaVuSans-Bold-76" transform="translate(242.089844 0)"/>
     <use xlink:href="#DejaVuSans-Bold-61" transform="translate(307.275391 0)"/>
     <use xlink:href="#DejaVuSans-Bold-69" transform="translate(374.755859 0)"/>
     <use xlink:href="#DejaVuSans-Bold-6c" transform="translate(409.033203 0)"/>
     <use xlink:href="#DejaVuSans-Bold-61" transform="translate(443.310547 0)"/>
     <use xlink:href="#DejaVuSans-Bold-62" transform="translate(510.791016 0)"/>
     <use xlink:href="#DejaVuSans-Bold-6c" transform="translate(582.373047 0)"/>
     <use xlink:href="#DejaVuSans-Bold-65" transform="translate(616.650391 0)"/>
    </g>
    <!-- N = 2,559 (23.5%) -->
    <g style="fill: #2c3e50" transform="translate(128.405391 367.275578) scale(0.09 -0.09)">
     <use xlink:href="#DejaVuSans-Bold-4e"/>
     <use xlink:href="#DejaVuSans-Bold-20" transform="translate(83.691406 0)"/>
     <use xlink:href="#DejaVuSans-Bold-3d" transform="translate(118.505859 0)"/>
     <use xlink:href="#DejaVuSans-Bold-20" transform="translate(202.294922 0)"/>
     <use xlink:href="#DejaVuSans-Bold-32" transform="translate(237.109375 0)"/>
     <use xlink:href="#DejaVuSans-Bold-2c" transform="translate(306.689453 0)"/>
     <use xlink:href="#DejaVuSans-Bold-35" transform="translate(344.677734 0)"/>
     <use xlink:href="#DejaVuSans-Bold-35" transform="translate(414.257812 0)"/>
     <use xlink:href="#DejaVuSans-Bold-39" transform="translate(483.837891 0)"/>
     <use xlink:href="#DejaVuSans-Bold-20" transform="translate(553.417969 0)"/>
     <use xlink:href="#DejaVuSans-Bold-28" transform="translate(588.232422 0)"/>
     <use xlink:href="#DejaVuSans-Bold-32" transform="translate(633.935547 0)"/>
     <use xlink:href="#DejaVuSans-Bold-33" transform="translate(703.515625 0)"/>
     <use xlink:href="#DejaVuSans-Bold-2e" transform="translate(773.095703 0)"/>
     <use xlink:href="#DejaVuSans-Bold-35" transform="translate(811.083984 0)"/>
     <use xlink:href="#DejaVuSans-Bold-25" transform="translate(880.664062 0)"/>
     <use xlink:href="#DejaVuSans-Bold-29" transform="translate(980.859375 0)"/>
    </g>
   </g>
   <g id="patch_14">
    <path d="M 174.6 390.981473 
Q 174.6 387.438322 174.6 385.572223 
" style="fill: none; stroke: #2c3e50; stroke-width: 1.5; stroke-linecap: round"/>
    <path d="M 172.6 389.572223 
L 174.6 385.572223 
L 176.6 389.572223 
" style="fill: none; stroke: #2c3e50; stroke-width: 1.5; stroke-linecap: round"/>
   </g>
   <g id="text_7">
    <!-- TIRADS available -->
    <g style="fill: #2c3e50" transform="translate(131.420391 412.602391) scale(0.09 -0.09)">
     <defs>
      <path id="DejaVuSans-Bold-44" d="M 1791 3756 
L 1791 909 
L 2222 909 
Q 2959 909 3348 1275 
Q 3738 1641 3738 2338 
Q 3738 3031 3350 3393 
Q 2963 3756 2222 3756 
L 1791 3756 
z
M 588 4666 
L 1856 4666 
Q 2919 4666 3439 4514 
Q 3959 4363 4331 4000 
Q 4659 3684 4818 3271 
Q 4978 2859 4978 2338 
Q 4978 1809 4818 1395 
Q 4659 981 4331 666 
Q 3956 303 3431 151 
Q 2906 0 1856 0 
L 588 0 
L 588 4666 
z
" transform="scale(0.015625)"/>
      <path id="DejaVuSans-Bold-53" d="M 3834 4519 
L 3834 3531 
Q 3450 3703 3084 3790 
Q 2719 3878 2394 3878 
Q 1963 3878 1756 3759 
Q 1550 3641 1550 3391 
Q 1550 3203 1689 3098 
Q 1828 2994 2194 2919 
L 2706 2816 
Q 3484 2659 3812 2340 
Q 4141 2022 4141 1434 
Q 4141 663 3683 286 
Q 3225 -91 2284 -91 
Q 1841 -91 1394 -6 
Q 947 78 500 244 
L 500 1259 
Q 947 1022 1364 901 
Q 1781 781 2169 781 
Q 2563 781 2772 912 
Q 2981 1044 2981 1288 
Q 2981 1506 2839 1625 
Q 2697 1744 2272 1838 
L 1806 1941 
Q 1106 2091 782 2419 
Q 459 2747 459 3303 
Q 459 4000 909 4375 
Q 1359 4750 2203 4750 
Q 2588 4750 2994 4692 
Q 3400 4634 3834 4519 
z
" transform="scale(0.015625)"/>
     </defs>
     <use xlink:href="#DejaVuSans-Bold-54"/>
     <use xlink:href="#DejaVuSans-Bold-49" transform="translate(68.212891 0)"/>
     <use xlink:href="#DejaVuSans-Bold-52" transform="translate(105.419922 0)"/>
     <use xlink:href="#DejaVuSans-Bold-41" transform="translate(182.421875 0)"/>
     <use xlink:href="#DejaVuSans-Bold-44" transform="translate(259.814453 0)"/>
     <use xlink:href="#DejaVuSans-Bold-53" transform="translate(342.822266 0)"/>
     <use xlink:href="#DejaVuSans-Bold-20" transform="translate(414.84375 0)"/>
     <use xlink:href="#DejaVuSans-Bold-61" transform="translate(449.658203 0)"/>
     <use xlink:href="#DejaVuSans-Bold-76" transform="translate(517.138672 0)"/>
     <use xlink:href="#DejaVuSans-Bold-61" transform="translate(582.324219 0)"/>
     <use xlink:href="#DejaVuSans-Bold-69" transform="translate(649.804688 0)"/>
     <use xlink:href="#DejaVuSans-Bold-6c" transform="translate(684.082031 0)"/>
     <use xlink:href="#DejaVuSans-Bold-61" transform="translate(718.359375 0)"/>
     <use xlink:href="#DejaVuSans-Bold-62" transform="translate(785.839844 0)"/>
     <use xlink:href="#DejaVuSans-Bold-6c" transform="translate(857.421875 0)"/>
     <use xlink:href="#DejaVuSans-Bold-65" transform="translate(891.699219 0)"/>
    </g>
    <!-- N = 3,474 (32.0%) -->
    <g style="fill: #2c3e50" transform="translate(128.405391 422.680422) scale(0.09 -0.09)">
     <use xlink:href="#DejaVuSans-Bold-4e"/>
     <use xlink:href="#DejaVuSans-Bold-20" transform="translate(83.691406 0)"/>
     <use xlink:href="#DejaVuSans-Bold-3d" transform="translate(118.505859 0)"/>
     <use xlink:href="#DejaVuSans-Bold-20" transform="translate(202.294922 0)"/>
     <use xlink:href="#DejaVuSans-Bold-33" transform="translate(237.109375 0)"/>
     <use xlink:href="#DejaVuSans-Bold-2c" transform="translate(306.689453 0)"/>
     <use xlink:href="#DejaVuSans-Bold-34" transform="translate(344.677734 0)"/>
     <use xlink:href="#DejaVuSans-Bold-37" transform="translate(414.257812 0)"/>
     <use xlink:href="#DejaVuSans-Bold-34" transform="translate(483.837891 0)"/>
     <use xlink:href="#DejaVuSans-Bold-20" transform="translate(553.417969 0)"/>
     <use xlink:href="#DejaVuSans-Bold-28" transform="translate(588.232422 0)"/>
     <use xlink:href="#DejaVuSans-Bold-33" transform="translate(633.935547 0)"/>
     <use xlink:href="#DejaVuSans-Bold-32" transform="translate(703.515625 0)"/>
     <use xlink:href="#DejaVuSans-Bold-2e" transform="translate(773.095703 0)"/>
     <use xlink:href="#DejaVuSans-Bold-30" transform="translate(811.083984 0)"/>
     <use xlink:href="#DejaVuSans-Bold-25" transform="translate(880.664062 0)"/>
     <use xlink:href="#DejaVuSans-Bold-29" transform="translate(980.859375 0)"/>
    </g>
   </g>
   <g id="text_8">
    <!-- Figure 1. Cohort Inclusion Flow -->
    <g style="fill: #2c3e50" transform="translate(60.270078 17.077969) scale(0.13 -0.13)">
     <defs>
      <path id="DejaVuSans-Bold-46" d="M 588 4666 
L 3834 4666 
L 3834 3756 
L 1791 3756 
L 1791 2888 
L 3713 2888 
L 3713 1978 
L 1791 1978 
L 1791 0 
L 588 0 
L 588 4666 
z
" transform="scale(0.015625)"/>
      <path id="DejaVuSans-Bold-43" d="M 4288 256 
Q 3956 84 3597 -3 
Q 3238 -91 2847 -91 
Q 1681 -91 1000 561 
Q 319 1213 319 2328 
Q 319 3447 1000 4098 
Q 1681 4750 2847 4750 
Q 3238 4750 3597 4662 
Q 3956 4575 4288 4403 
L 4288 3438 
Q 3953 3666 3628 3772 
Q 3303 3878 2944 3878 
Q 2300 3878 1931 3465 
Q 1563 3053 1563 2328 
Q 1563 1606 1931 1193 
Q 2300 781 2944 781 
Q 3303 781 3628 887 
Q 3953 994 4288 1222 
L 4288 256 
z
" transform="scale(0.015625)"/>
      <path id="DejaVuSans-Bold-77" d="M 225 3500 
L 1313 3500 
L 1900 1088 
L 2491 3500 
L 3425 3500 
L 4013 1113 
L 4603 3500 
L 5691 3500 
L 4769 0 
L 3547 0 
L 2956 2406 
L 2369 0 
L 1147 0 
L 225 3500 
z
" transform="scale(0.015625)"/>
     </defs>
     <use xlink:href="#DejaVuSans-Bold-46"/>
     <use xlink:href="#DejaVuSans-Bold-69" transform="translate(68.310547 0)"/>
     <use xlink:href="#DejaVuSans-Bold-67" transform="translate(102.587891 0)"/>
     <use xlink:href="#DejaVuSans-Bold-75" transform="translate(174.169922 0)"/>
     <use xlink:href="#DejaVuSans-Bold-72" transform="translate(245.361328 0)"/>
     <use xlink:href="#DejaVuSans-Bold-65" transform="translate(294.677734 0)"/>
     <use xlink:href="#DejaVuSans-Bold-20" transform="translate(362.5 0)"/>
     <use xlink:href="#DejaVuSans-Bold-31" transform="translate(397.314453 0)"/>
     <use xlink:href="#DejaVuSans-Bold-2e" transform="translate(466.894531 0)"/>
     <use xlink:href="#DejaVuSans-Bold-20" transform="translate(504.882812 0)"/>
     <use xlink:href="#DejaVuSans-Bold-43" transform="translate(539.697266 0)"/>
     <use xlink:href="#DejaVuSans-Bold-6f" transform="translate(613.085938 0)"/>
     <use xlink:href="#DejaVuSans-Bold-68" transform="translate(681.787109 0)"/>
     <use xlink:href="#DejaVuSans-Bold-6f" transform="translate(752.978516 0)"/>
     <use xlink:href="#DejaVuSans-Bold-72" transform="translate(821.679688 0)"/>
     <use xlink:href="#DejaVuSans-Bold-74" transform="translate(870.996094 0)"/>
     <use xlink:href="#DejaVuSans-Bold-20" transform="translate(918.798828 0)"/>
     <use xlink:href="#DejaVuSans-Bold-49" transform="translate(953.613281 0)"/>
     <use xlink:href="#DejaVuSans-Bold-6e" transform="translate(990.820312 0)"/>
     <use xlink:href="#DejaVuSans-Bold-63" transform="translate(1062.011719 0)"/>
     <use xlink:href="#DejaVuSans-Bold-6c" transform="translate(1121.289062 0)"/>
     <use xlink:href="#DejaVuSans-Bold-75" transform="translate(1155.566406 0)"/>
     <use xlink:href="#DejaVuSans-Bold-73" transform="translate(1226.757812 0)"/>
     <use xlink:href="#DejaVuSans-Bold-69" transform="translate(1286.279297 0)"/>
     <use xlink:href="#DejaVuSans-Bold-6f" transform="translate(1320.556641 0)"/>
     <use xlink:href="#DejaVuSans-Bold-6e" transform="translate(1389.257812 0)"/>
     <use xlink:href="#DejaVuSans-Bold-20" transform="translate(1460.449219 0)"/>
     <use xlink:href="#DejaVuSans-Bold-46" transform="translate(1495.263672 0)"/>
     <use xlink:href="#DejaVuSans-Bold-6c" transform="translate(1563.574219 0)"/>
     <use xlink:href="#DejaVuSans-Bold-6f" transform="translate(1597.851562 0)"/>
     <use xlink:href="#DejaVuSans-Bold-77" transform="translate(1666.552734 0)"/>
    </g>
   </g>
  </g>
 </g>
 <defs>
  <clipPath id="pb22f9f6e5d">
   <rect x="7.2" y="27.077969" width="334.8" height="443.52"/>
  </clipPath>
 </defs>
</svg>
